<svg width="48" height="32" viewBox="0 0 48 32" fill="none" xmlns="http://www.w3.org/2000/svg">
<g id="arrow-button-left">
<g id="Group">
<path id="arrow-left" d="M0 15.8877C0.0304 16.2369 0.17248 16.7031 0.4 16.9646L12.4 30.9134C12.9234 31.6422 14.0027 31.6398 14.667 31.0437C15.3312 30.4475 15.3818 29.3884 14.8 28.7595L5.12496 17.5287H46.4C47.2836 17.5287 48 16.7941 48 15.8877C48 14.9814 47.2836 14.2467 46.4 14.2467H5.12496L14.8 3.01589C15.4349 2.38705 15.2563 1.30857 14.5921 0.712468C13.9278 0.116365 12.9234 0.158868 12.4 0.862047L0.4 14.8108C0.07928 15.1671 0.01808 15.5538 0 15.8877Z" fill="#F6A71E"/>
</g>
</g>
</svg>
