<svg width="48" height="32" viewBox="0 0 48 32" fill="none" xmlns="http://www.w3.org/2000/svg">
<g id="arrow-button-right">
<g id="Group">
<path id="Path" d="M48 16.1123C47.9696 15.7631 47.8275 15.2969 47.6 15.0354L35.6 1.08665C35.0766 0.357786 33.9973 0.360165 33.333 0.956266C32.6688 1.55245 32.6182 2.61157 33.2 3.24049L42.875 14.4713L1.59998 14.4713C0.716385 14.4713 -1.52588e-05 15.2059 -1.52588e-05 16.1123C-1.52588e-05 17.0186 0.716385 17.7533 1.59998 17.7533L42.875 17.7533L33.2 28.9841C32.5651 29.6129 32.7437 30.6914 33.4079 31.2875C34.0722 31.8836 35.0766 31.8411 35.6 31.138L47.6 17.1892C47.9207 16.8329 47.9819 16.4462 48 16.1123Z" fill="#F6A71E"/>
</g>
</g>
</svg>
