<svg width="9" height="19" viewBox="0 0 9 19" fill="none" xmlns="http://www.w3.org/2000/svg">
<path fill-rule="evenodd" clip-rule="evenodd" d="M1.98301 9.57479V18.7607C1.98301 18.8927 2.09244 19 2.22703 19H5.7054C5.83999 19 5.94904 18.8927 5.94904 18.7607V9.42521H8.47079C8.59737 9.42521 8.70299 9.32986 8.71366 9.20608L8.95615 6.39329C8.96835 6.25381 8.85626 6.13377 8.71328 6.13377H5.94904V4.13842C5.94904 3.67062 6.33565 3.29144 6.81262 3.29144H8.75598C8.89096 3.29144 9 3.18412 9 3.05212V0.239323C9 0.107321 8.89096 0 8.75598 0H5.47244C3.54548 0 1.98301 1.53204 1.98301 3.42194V6.13377H0.244016C0.109426 6.13377 0 6.24109 0 6.3731V9.18589C0 9.31826 0.109426 9.42521 0.244016 9.42521H1.98301V9.57479Z" fill="white"/>
</svg>
