<svg width="125" height="124" viewBox="0 0 125 124" fill="none" xmlns="http://www.w3.org/2000/svg">
<path fill-rule="evenodd" clip-rule="evenodd" d="M8.92857 107.01H116.071C121.003 107.01 125 103.036 125 98.1348V24.5969C125 19.6953 121.003 15.7217 116.071 15.7217H8.92857C3.99746 15.7217 0 19.6953 0 24.5969V98.1348C0 103.036 3.99746 107.01 8.92857 107.01ZM2.55102 24.5969C2.55102 21.0957 5.40635 18.2575 8.92857 18.2575H116.071C119.594 18.2575 122.449 21.0957 122.449 24.5969V98.1348C122.449 101.636 119.594 104.474 116.071 104.474H8.92857C7.23714 104.474 5.61498 103.806 4.41896 102.617C3.22294 101.429 2.55102 99.8161 2.55102 98.1348V24.5969Z" fill="#032549"/>
<path d="M1.27551 84.9492C0.571065 84.9492 0 85.5169 0 86.2171C0 86.9174 0.571065 87.485 1.27551 87.485H91.352C90.9644 86.685 90.7062 85.8292 90.5867 84.9492H1.27551Z" fill="#032549"/>
<path d="M123.469 84.9492H105.49C106 85.8215 106.633 86.6051 107.15 87.485H123.477C124.181 87.485 124.753 86.9174 124.753 86.2171C124.753 85.5169 124.181 84.9492 123.477 84.9492H123.469Z" fill="#032549"/>
<path d="M5.63516 124C5.00838 123.999 4.47528 123.545 4.37751 122.93C4.2015 121.071 4.80934 119.222 6.05608 117.826C8.352 115.145 12.6454 113.786 18.7857 113.786C22.1938 113.786 26.6045 113.18 28.2857 110.299C28.9438 109.171 28.9056 108.228 28.8545 106.919C28.8545 106.546 28.8265 106.158 28.8265 105.743C28.8265 105.042 29.3976 104.475 30.102 104.475C30.8064 104.475 31.3775 105.042 31.3775 105.743C31.3775 106.113 31.3903 106.473 31.4056 106.823C31.4617 108.288 31.5204 109.807 30.4923 111.57C28.6811 114.679 24.625 116.322 18.7857 116.322C12.1071 116.322 9.2321 118.036 7.99485 119.474C6.69638 120.995 6.89536 122.517 6.89791 122.534C6.95077 122.867 6.86864 123.206 6.66961 123.478C6.47058 123.75 6.17095 123.933 5.83669 123.985C5.76998 123.995 5.70262 124 5.63516 124Z" fill="#032549"/>
<path d="M73.9797 105.743C73.9797 105.042 73.4087 104.475 72.7042 104.475C71.9998 104.475 71.4287 105.042 71.4287 105.743V116.139H73.9797V105.743Z" fill="#032549"/>
<path d="M53.5715 105.743C53.5715 105.042 53.0005 104.475 52.296 104.475C51.5916 104.475 51.0205 105.042 51.0205 105.743V116.139H53.5715V105.743Z" fill="#032549"/>
<path d="M91.0917 123.817C90.3873 123.817 89.8162 123.25 89.8162 122.549V119.288C89.8148 118.488 89.1619 117.84 88.357 117.84H36.908C36.1036 117.84 35.4514 118.489 35.4514 119.288V122.549C35.4514 123.25 34.8803 123.817 34.1759 123.817C33.4715 123.817 32.9004 123.25 32.9004 122.549V119.288C32.9032 117.089 34.6958 115.307 36.908 115.305H88.357C90.5702 115.306 92.3644 117.088 92.3672 119.288V122.549C92.3672 123.25 91.7962 123.817 91.0917 123.817Z" fill="#032549"/>
<path d="M103.316 124H21.9386C21.2342 124 20.6631 123.432 20.6631 122.732C20.6631 122.032 21.2342 121.464 21.9386 121.464H103.316C104.021 121.464 104.592 122.032 104.592 122.732C104.592 123.432 104.021 124 103.316 124Z" fill="#032549"/>
<path fill-rule="evenodd" clip-rule="evenodd" d="M56.8877 95.7389C56.8877 98.8199 59.4004 101.318 62.4999 101.318C65.5995 101.318 68.1122 98.8199 68.1122 95.7389C68.1122 92.6578 65.5995 90.1602 62.4999 90.1602C59.4004 90.1602 56.8877 92.6578 56.8877 95.7389ZM59.4387 95.7566C59.4387 94.0761 60.8093 92.7137 62.4999 92.7137C64.1906 92.7137 65.5612 94.0761 65.5612 95.7566C65.5612 97.4372 64.1906 98.7996 62.4999 98.7996C60.8093 98.7996 59.4387 97.4372 59.4387 95.7566Z" fill="#032549"/>
<path d="M109.184 61.3662H77.2958C75.1824 61.3662 73.4692 63.0692 73.4692 65.1699V72.0165C73.4692 74.1172 75.1824 75.8202 77.2958 75.8202H88.4182C88.2281 74.9851 88.0977 74.1378 88.0279 73.2844H77.2958C76.5913 73.2844 76.0203 72.7168 76.0203 72.0165V65.1699C76.0203 64.4697 76.5913 63.902 77.2958 63.902H109.184C109.888 63.902 110.459 64.4697 110.459 65.1699V72.0165C110.459 72.7168 109.888 73.2844 109.184 73.2844H96.2396C97.5152 74.2987 99.0177 75.095 100.49 75.8202H109.184C111.297 75.8202 113.01 74.1172 113.01 72.0165V65.1699C113.01 63.0692 111.297 61.3662 109.184 61.3662Z" fill="#032549"/>
<path fill-rule="evenodd" clip-rule="evenodd" d="M104.921 101.244C104.987 101.254 105.053 101.259 105.12 101.259C105.4 101.259 105.673 101.167 105.895 100.998L113.411 95.2947C113.686 95.0855 113.865 94.7737 113.904 94.4311C113.944 94.0886 113.841 93.7448 113.62 93.4791L106.332 84.7154L110.171 81.8018C110.512 81.543 110.699 81.1313 110.669 80.706C110.639 80.2807 110.397 79.8987 110.023 79.6894L87.1965 66.8989C86.7519 66.6488 86.2002 66.6864 85.7941 66.9944C85.3881 67.3025 85.2061 67.8217 85.3317 68.3139L91.7322 93.5729C91.8369 93.9868 92.144 94.3206 92.5494 94.461C92.9548 94.6015 93.4041 94.5298 93.7449 94.2702L97.5715 91.3642L104.071 100.711C104.269 100.997 104.576 101.189 104.921 101.244ZM98.0613 88.2959C97.9954 88.2858 97.9289 88.2807 97.8623 88.2807C97.5798 88.2857 97.3071 88.3839 97.0868 88.5596L93.7322 91.0954L88.5306 70.5555L107.084 80.9523L103.73 83.5007C103.454 83.7099 103.276 84.0217 103.236 84.3643C103.197 84.7069 103.299 85.0506 103.52 85.3164L110.809 94.0775L105.411 98.1753L98.9107 88.8284C98.7128 88.5429 98.4058 88.3505 98.0613 88.2959Z" fill="#032549"/>
<path d="M108.163 124H107.908C107.204 124 106.633 123.432 106.633 122.732C106.633 122.032 107.204 121.464 107.908 121.464H108.163C108.868 121.464 109.439 122.032 109.439 122.732C109.439 123.432 108.868 124 108.163 124V124Z" fill="#032549"/>
<path d="M103.572 30.9362H75.5104C74.8059 30.9362 74.2349 30.3685 74.2349 29.6683C74.2349 28.968 74.8059 28.4004 75.5104 28.4004H103.572C104.276 28.4004 104.847 28.968 104.847 29.6683C104.847 30.3685 104.276 30.9362 103.572 30.9362Z" fill="#032549"/>
<path d="M111.48 38.9674H75.5104C74.8059 38.9674 74.2349 38.3998 74.2349 37.6995C74.2349 36.9993 74.8059 36.4316 75.5104 36.4316H111.48C112.184 36.4316 112.755 36.9993 112.755 37.6995C112.755 38.3998 112.184 38.9674 111.48 38.9674V38.9674Z" fill="#032549"/>
<path d="M95.4083 46.9957H75.5104C74.8059 46.9957 74.2349 46.4281 74.2349 45.7279C74.2349 45.0276 74.8059 44.46 75.5104 44.46H95.4083C96.1128 44.46 96.6838 45.0276 96.6838 45.7279C96.6838 46.4281 96.1128 46.9957 95.4083 46.9957V46.9957Z" fill="#032549"/>
<path d="M107.653 46.9118H101.276C100.571 46.9118 100 46.3441 100 45.6439C100 44.9436 100.571 44.376 101.276 44.376H107.653C108.358 44.376 108.929 44.9436 108.929 45.6439C108.929 46.3441 108.358 46.9118 107.653 46.9118V46.9118Z" fill="#032549"/>
<path d="M95.4083 55.027H75.5104C74.8059 55.027 74.2349 54.4593 74.2349 53.7591C74.2349 53.0589 74.8059 52.4912 75.5104 52.4912H95.4083C96.1128 52.4912 96.6838 53.0589 96.6838 53.7591C96.6838 54.4593 96.1128 55.027 95.4083 55.027Z" fill="#032549"/>
<path d="M95.2169 5.70806C94.5125 5.70806 93.9414 5.1404 93.9414 4.44016V1.26789C93.9414 0.567655 94.5125 0 95.2169 0C95.9214 0 96.4924 0.567655 96.4924 1.26789V4.44016C96.4924 4.77643 96.358 5.09892 96.1188 5.3367C95.8796 5.57448 95.5552 5.70806 95.2169 5.70806V5.70806Z" fill="#032549"/>
<path d="M89.2269 7.30582C88.7698 7.3062 88.3474 7.06338 88.1198 6.66934L86.5229 3.92308C86.1763 3.31721 86.3867 2.54688 86.9939 2.1984C87.6011 1.84991 88.3774 2.05393 88.732 2.65519L90.329 5.40145C90.6812 6.00785 90.4722 6.78326 89.8621 7.13339C89.6695 7.24581 89.4503 7.30532 89.2269 7.30582V7.30582Z" fill="#032549"/>
<path d="M105.597 11.6649C105.019 11.666 104.513 11.281 104.363 10.7264C104.213 10.1718 104.456 9.58619 104.957 9.29901L107.722 7.71414C108.117 7.48404 108.605 7.48189 109.002 7.7085C109.399 7.93511 109.644 8.35574 109.643 8.81072C109.642 9.2657 109.395 9.68526 108.997 9.91013L106.232 11.495C106.04 11.6072 105.82 11.6659 105.597 11.6649Z" fill="#032549"/>
<path d="M84.8368 11.6645C84.6136 11.6655 84.3942 11.6068 84.2016 11.4946L81.4363 9.90975C80.8314 9.55727 80.6262 8.78557 80.9768 8.182C81.3273 7.57842 82.1023 7.36928 82.7118 7.71376L85.4771 9.29862C85.9775 9.5858 86.2211 10.1714 86.071 10.726C85.9209 11.2806 85.4146 11.6656 84.8368 11.6645V11.6645Z" fill="#032549"/>
<path d="M101.207 7.30582C100.983 7.30532 100.764 7.24581 100.572 7.13339C99.9615 6.78326 99.7525 6.00785 100.105 5.40145L101.699 2.65519C102.054 2.05393 102.83 1.84991 103.437 2.1984C104.044 2.54688 104.255 3.31721 103.908 3.92308L102.314 6.66934C102.086 7.06338 101.664 7.3062 101.207 7.30582V7.30582Z" fill="#032549"/>
<path fill-rule="evenodd" clip-rule="evenodd" d="M62.1786 60.7602H57.7366C57.4787 59.004 56.4011 57.3962 54.7238 56.04C54.4643 53.1725 53.3521 50.3934 50.98 48.5656C47.6945 46.0298 41.8364 44.0887 32.5861 49.2338L32.5358 49.2618L32.5358 49.2618C32.4481 49.3107 32.3893 49.3436 32.3364 49.3704C24.2738 49.8169 17.8375 54.6837 17.2904 60.7602H14.8214C14.6029 60.7602 14.3943 60.8485 14.2398 61.0034C14.0854 61.1584 14 61.3716 14 61.5932C14 61.9031 14.1413 69.1775 26.4816 71.9783C26.5408 71.9933 26.6015 72 26.6607 72H50.3393C50.3985 72 50.4592 71.9933 50.5184 71.9783C62.8571 69.1759 63 61.9015 63 61.5932C63 61.1334 62.632 60.7602 62.1786 60.7602ZM55.994 61H54.006C54.214 60.3511 54.382 59.6854 54.446 59C55.248 59.6278 55.772 60.2992 55.994 61ZM52.575 61C53.501 57.2864 53.0452 52.664 49.8919 50.2004C46.3215 47.4074 41.5529 47.2782 36 49.7848C36.0814 49.7933 36.1638 49.7982 36.2461 49.8031C36.3559 49.8096 36.4657 49.8161 36.5733 49.8312C37.6942 49.5299 44.3841 47.9372 48.2638 51.4901C50.4459 53.4851 51.2721 56.6921 50.7664 61H52.575ZM27 61C28.1637 59.3888 32.4337 57 39.6726 57C43.7216 57 46.8329 57.7505 48.9998 58.6926C49.0031 59.2659 48.9671 59.8758 48.8967 60.5146C47.3419 59.7465 44.3714 58.691 39.6709 58.691C33.8445 58.691 30.6432 60.3166 29.5483 61H27ZM39.8795 54C31.7755 54 24.8506 57.1305 24 61H25.4767C26.407 58.2054 32.052 55.3933 39.8795 55.3933C43.477 55.3933 46.5686 56.0107 49 56.9257C48.9073 56.3611 48.7804 55.8284 48.5983 55.3469C46.0677 54.5135 43.0818 54 39.8795 54ZM44.1908 52.3732C43.2088 51.8247 42.1262 51.3891 41 51.013C43.2322 50.9284 45.9203 51.2277 47.7486 52.7508C47.8072 52.7996 47.859 52.8541 47.9104 52.9082L47.9105 52.9083L47.9106 52.9084C47.9401 52.9394 47.9695 52.9703 48 53C46.8001 52.7242 45.5265 52.5142 44.1908 52.3732ZM46 60.446C44.4967 59.954 42.5355 59.554 40.0216 59.554C37.6543 59.554 35.6282 59.92 34 60.446H46ZM33.4638 51C35.3808 51 37.2522 51.3138 39 51.8562C30.0627 52.1035 23.0781 55.9633 22.3621 61H19C19.5858 55.4158 25.8413 51 33.4638 51ZM26.8715 70H50.1301C58.6338 68.0008 60.5609 63.8087 61 62H16C16.4375 63.8019 18.3646 67.9992 26.8715 70Z" fill="#032549"/>
<path d="M26 42.1684C26 42.6274 26.448 43 27 43C27.552 43 28 42.6274 28 42.1684C28 41.4348 28.31 41.1171 28.778 40.6348C29.322 40.0743 30 39.3773 30 38.055C30 36.731 29.322 36.0341 28.778 35.4736C28.31 34.9929 28 34.6752 28 33.94C28 33.2082 28.31 32.8888 28.778 32.4081C29.322 31.8492 30 31.154 30 29.8317C30 29.3726 29.552 29 29 29C28.448 29 28 29.3726 28 29.8317C28 30.5635 27.692 30.8812 27.222 31.3619C26.678 31.9224 26 32.6177 26 33.94C26 35.2623 26.678 35.9592 27.222 36.5198C27.69 37.0021 28 37.3198 28 38.055C28 38.7902 27.69 39.1079 27.222 39.5886C26.678 40.1491 26 40.846 26 42.1684Z" fill="#032549"/>
<path d="M34 42.1684C34 42.6274 34.336 43 34.75 43C35.164 43 35.5 42.6274 35.5 42.1684C35.5 41.4348 35.7325 41.1171 36.0835 40.6348C36.4915 40.0743 37 39.3773 37 38.055C37 36.731 36.4915 36.0341 36.0835 35.4736C35.734 34.9929 35.5 34.6752 35.5 33.94C35.5 33.2082 35.7325 32.8888 36.0835 32.4081C36.4915 31.8492 37 31.154 37 29.8317C37 29.3726 36.664 29 36.25 29C35.836 29 35.5 29.3726 35.5 29.8317C35.5 30.5635 35.269 30.8812 34.9165 31.3619C34.5085 31.9208 34 32.6177 34 33.94C34 35.2623 34.5085 35.9592 34.9165 36.5198C35.266 37.0021 35.5 37.3198 35.5 38.055C35.5 38.7902 35.2675 39.1079 34.9165 39.5886C34.5085 40.1491 34 40.846 34 42.1684Z" fill="#032549"/>
<path d="M40 42.1684C40 42.6274 40.336 43 40.75 43C41.164 43 41.5 42.6274 41.5 42.1684C41.5 41.4348 41.7325 41.1171 42.0835 40.6348C42.4915 40.0743 43 39.3773 43 38.055C43 36.731 42.4915 36.0341 42.0835 35.4736C41.734 34.9929 41.5 34.6752 41.5 33.94C41.5 33.2082 41.7325 32.8888 42.0835 32.4081C42.4915 31.8492 43 31.154 43 29.8317C43 29.3726 42.664 29 42.25 29C41.836 29 41.5 29.3726 41.5 29.8317C41.5 30.5635 41.269 30.8812 40.9165 31.3619C40.5085 31.9208 40 32.6177 40 33.94C40 35.2623 40.5085 35.9592 40.9165 36.5198C41.266 37.0021 41.5 37.3198 41.5 38.055C41.5 38.7902 41.2675 39.1079 40.9165 39.5886C40.5085 40.1491 40 40.846 40 42.1684Z" fill="#032549"/>
<path d="M47 42.1684C47 42.6274 47.448 43 48 43C48.552 43 49 42.6274 49 42.1684C49 41.4348 49.31 41.1171 49.778 40.6348C50.322 40.0743 51 39.3773 51 38.055C51 36.731 50.322 36.0341 49.778 35.4736C49.312 34.9929 49 34.6752 49 33.94C49 33.2082 49.31 32.8888 49.778 32.4081C50.322 31.8492 51 31.154 51 29.8317C51 29.3726 50.552 29 50 29C49.448 29 49 29.3726 49 29.8317C49 30.5635 48.692 30.8812 48.222 31.3619C47.678 31.9208 47 32.6177 47 33.94C47 35.2623 47.678 35.9592 48.222 36.5198C48.688 37.0021 49 37.3198 49 38.055C49 38.7902 48.69 39.1079 48.222 39.5886C47.678 40.1491 47 40.846 47 42.1684Z" fill="#032549"/>
</svg>
