<svg width="17" height="16" viewBox="0 0 17 16" fill="none" xmlns="http://www.w3.org/2000/svg">
<path fill-rule="evenodd" clip-rule="evenodd" d="M2.06235 0C0.815646 0 0 0.806023 0 1.86502C0 2.90152 0.792 3.73083 2.01452 3.73083H2.03816C3.30933 3.73083 4.0997 2.90152 4.0997 1.86502C4.07551 0.806023 3.30933 0 2.06235 0ZM17 9.8088V16H13.3556V10.2237C13.3556 8.77337 12.8294 7.7829 11.5098 7.7829C10.5028 7.7829 9.90462 8.44972 9.64044 9.0954C9.54449 9.32615 9.51976 9.64658 9.51976 9.97022V15.9997H5.87504C5.87504 15.9997 5.92396 6.21663 5.87504 5.20395H9.52003V6.73381C9.51659 6.73946 9.51249 6.74505 9.50844 6.75058C9.50385 6.75685 9.49931 6.76303 9.49584 6.76915H9.52003V6.73381C10.0044 5.9998 10.8681 4.95044 12.8046 4.95044C15.2024 4.95044 17 6.49342 17 9.8088ZM3.85998 16H0.216618V5.20395H3.85998V16Z" fill="white"/>
</svg>
