<svg width="16" height="16" viewBox="0 0 16 16" fill="none" xmlns="http://www.w3.org/2000/svg">
<path d="M15.9961 15.9998V15.9991H16.0001V9.99752C16.0001 7.06149 15.3786 4.7998 12.0033 4.7998C10.3807 4.7998 9.29183 5.7053 8.84729 6.56374H8.80036V5.07391H5.6001V15.9991H8.93244V10.5894C8.93244 9.16498 9.19796 7.78765 10.9325 7.78765C12.6416 7.78765 12.6671 9.41317 12.6671 10.6807V15.9998H15.9961Z" fill="white"/>
<path d="M0.800049 4.7998H4.00005V15.9998H0.800049L0.800049 4.7998Z" fill="white"/>
<path d="M2 0C0.895906 0 0 0.891729 0 1.99068C0 3.08962 0.895906 4 2 4C3.10409 4 4 3.08962 4 1.99068C3.99931 0.891729 3.1034 0 2 0Z" fill="white"/>
</svg>
