<svg width="164" height="164" viewBox="0 0 164 164" fill="none" xmlns="http://www.w3.org/2000/svg">
<g opacity="0.107236">
<path fill-rule="evenodd" clip-rule="evenodd" d="M112.158 135.008C111.944 135.277 111.645 135.52 111.322 135.708C109.92 136.516 108.171 136.22 107.144 135.008C107.012 134.845 106.903 134.684 106.796 134.495C106.5 133.984 106.362 133.415 106.337 132.853C106.337 131.692 106.931 130.587 108.01 129.967C109.598 129.052 111.62 129.564 112.536 131.182C112.83 131.721 112.993 132.285 112.993 132.853C112.993 133.633 112.697 134.415 112.158 135.008ZM107.066 128.432C105.421 129.375 104.505 131.073 104.477 132.853C104.477 133.578 104.64 134.308 104.936 135.008C105.016 135.17 105.097 135.304 105.179 135.465C106.605 137.944 109.787 138.779 112.211 137.377C113.181 136.812 113.909 135.977 114.341 135.008C114.637 134.333 114.798 133.606 114.798 132.853C114.798 131.989 114.584 131.099 114.125 130.291C112.697 127.839 109.517 127.031 107.066 128.432Z" fill="white"/>
<path fill-rule="evenodd" clip-rule="evenodd" d="M35.3082 107.495L26.3892 112.669C26.7102 113.289 27.0892 114.016 27.4652 114.61L36.4102 109.437C35.9262 108.654 35.6832 108.223 35.3082 107.495Z" fill="white"/>
<path fill-rule="evenodd" clip-rule="evenodd" d="M98.5776 132.096L101.973 141.853C102.645 141.637 103.4 141.421 104.075 141.153L100.679 131.396C99.8426 131.721 99.3856 131.855 98.5776 132.096Z" fill="white"/>
<path fill-rule="evenodd" clip-rule="evenodd" d="M48.9411 125.683L49.9921 124.309C47.6211 122.343 45.7361 120.808 43.5511 118.758L42.3121 119.999C43.1771 120.781 43.9021 121.536 44.7381 122.343L39.0801 128.674L40.7761 130.129L46.2481 123.663C47.1371 124.364 48.0271 124.983 48.9411 125.683Z" fill="white"/>
<path fill-rule="evenodd" clip-rule="evenodd" d="M96.1245 132.959C93.1075 133.634 90.7345 134.173 87.7715 134.63L88.0155 136.382C89.1455 136.193 90.1705 136.058 91.3275 135.897L92.8375 144.277L95.0475 143.82L93.2945 135.519C94.3985 135.248 95.4515 134.951 96.5565 134.655L96.1245 132.959Z" fill="white"/>
<path fill-rule="evenodd" clip-rule="evenodd" d="M81.8161 141.448L82.5161 139.318L83.2181 137.19L84.0521 139.318L84.8621 141.339L81.8161 141.448ZM84.3761 135.008L84.2681 134.739L81.9521 134.819L81.8971 135.008L80.4691 139.318L78.5571 145.06C79.2551 145.087 79.9581 145.114 80.6311 145.167L81.1971 143.333L85.6981 143.199L86.3421 144.951C87.0151 144.871 87.6901 144.817 88.3921 144.761L86.1551 139.318L84.3761 135.008Z" fill="white"/>
<path fill-rule="evenodd" clip-rule="evenodd" d="M129.159 118.003L128.785 118.487L127.274 120.401L126.117 118.487L124.93 116.575L129.159 118.003ZM122.289 115.983L123.8 118.487L127.894 125.227C128.379 124.713 128.838 124.2 129.297 123.716L128.272 122.101L131.1 118.596L132.854 119.243C133.014 118.974 133.203 118.731 133.391 118.487C133.607 118.191 133.823 117.868 134.066 117.574L123.744 114.177L122.289 115.983Z" fill="white"/>
<path fill-rule="evenodd" clip-rule="evenodd" d="M135.143 112.668L127.624 108.52L126.628 110.269L135.736 115.31L139.241 109.057L137.648 108.196L135.143 112.668Z" fill="white"/>
<path fill-rule="evenodd" clip-rule="evenodd" d="M74.6489 140.798L71.6049 133.93C70.8759 133.768 70.4709 133.579 69.7689 133.471L67.3999 143.657C68.0999 143.82 68.7999 143.926 69.5279 144.032L70.8499 137.835L73.9209 144.789C74.5939 144.869 75.3769 145.112 76.1839 145.085L77.3429 134.577C76.7239 134.523 76.0219 134.605 75.3769 134.495L74.6489 140.798Z" fill="white"/>
<path fill-rule="evenodd" clip-rule="evenodd" d="M117.925 120.565L122.263 125.198L115.04 123.07C114.447 123.529 114.043 123.691 113.504 124.148L119.729 132.582C120.296 132.15 120.833 131.666 121.372 131.209L117.546 126.169L124.822 128.351C125.334 127.894 126.007 127.435 126.493 126.818L119.27 119.137C118.841 119.569 118.437 120.133 117.925 120.565Z" fill="white"/>
<path fill-rule="evenodd" clip-rule="evenodd" d="M40.9936 115.768L36.1686 119.917L38.6206 112.802C38.1656 112.185 38.0286 111.781 37.5716 111.214L28.8926 117.06C29.2986 117.655 29.7556 118.192 30.1876 118.786L35.3886 115.175L32.9076 122.343C33.3406 122.856 33.7446 123.556 34.3646 124.068L42.3666 117.196C41.9346 116.737 41.3976 116.307 40.9936 115.768Z" fill="white"/>
<path fill-rule="evenodd" clip-rule="evenodd" d="M64.4623 135.007C64.2463 135.653 63.6263 136.246 62.9543 135.976L60.5833 135.062L60.6103 135.007L60.8263 134.416L61.4183 132.771L64.0053 133.741C64.3283 133.877 64.4893 134.116 64.5443 134.416C64.5693 134.605 64.5443 134.819 64.4623 135.007ZM64.9213 132.179L60.2593 130.398L58.5353 134.416L58.2923 135.007L56.2173 139.857C56.8923 140.208 57.5653 140.424 58.2123 140.638L59.8273 136.651L61.8753 137.513L61.9833 142.066C62.7663 142.365 63.5213 142.579 64.2213 142.739L63.8973 137.943C65.3783 137.756 66.3213 136.382 66.4563 135.007C66.4833 134.819 66.4833 134.605 66.4833 134.416C66.4033 133.444 65.9193 132.553 64.9213 132.179Z" fill="white"/>
<path fill-rule="evenodd" clip-rule="evenodd" d="M52.6879 128.488C54.0879 129.268 55.5159 130.077 57.0239 130.804L57.9419 129.268C55.8389 128.217 53.8749 126.924 52.0409 125.711L46.1919 134.307C48.4029 135.762 50.4499 137.002 52.7149 138.322L53.6289 136.811L48.9689 134.039L50.5039 131.773L53.6289 133.634L54.5729 132.207C53.5499 131.665 52.4999 131.02 51.4479 130.345L52.6879 128.488Z" fill="white"/>
<path fill-rule="evenodd" clip-rule="evenodd" d="M62.1176 25.686C62.0926 23.933 63.3846 22.505 65.1366 22.372C66.9696 22.209 68.5596 23.531 68.7216 25.363C68.7216 25.471 68.7466 25.579 68.7216 25.686C68.7216 27.411 67.4266 28.811 65.7026 28.973C63.8976 29.134 62.2796 27.814 62.1176 25.956V25.686ZM65.8096 30.86C68.5056 30.589 70.5526 28.327 70.5526 25.686C70.5526 25.524 70.5246 25.388 70.5246 25.255C70.2816 22.398 67.7526 20.325 64.9226 20.566C62.2546 20.809 60.2056 23.017 60.2056 25.686C60.2056 25.847 60.2326 25.983 60.2326 26.143C60.5036 29 63.0086 31.101 65.8096 30.86Z" fill="white"/>
<path fill-rule="evenodd" clip-rule="evenodd" d="M86.2348 23.1519L87.3138 20.9419L87.9328 23.1519L88.5258 25.3379C87.4758 25.1739 86.3958 25.0659 85.3188 25.0109L86.2348 23.1519ZM84.5368 26.7629C85.9638 26.8179 87.3408 26.8709 88.8468 27.1139L89.4438 29.0279C90.1948 29.1089 90.7608 29.1889 91.5718 29.3499L89.8988 23.1519L88.6588 18.5709L86.3708 18.3549L84.0518 23.1519L81.4668 28.4889C82.3558 28.5159 82.7048 28.4889 83.5948 28.5419L84.5368 26.7629Z" fill="white"/>
<path fill-rule="evenodd" clip-rule="evenodd" d="M75.0534 20.4047L75.9414 28.8387L78.1524 28.6497L77.2884 20.2157L80.6034 20.0017L80.4704 18.1677C76.7774 18.3837 75.2694 18.5177 71.5234 19.0577L71.7664 20.8617L75.0534 20.4047Z" fill="white"/>
<path fill-rule="evenodd" clip-rule="evenodd" d="M107.416 35.1713L109.651 30.8863L115.716 28.0833C115.094 27.6243 114.394 27.3033 113.748 26.8993L109.546 28.7833L108.788 24.2843C107.928 23.8803 107.416 23.6643 106.525 23.2883L107.712 29.8623L105.474 34.1193L107.416 35.1713Z" fill="white"/>
<path fill-rule="evenodd" clip-rule="evenodd" d="M97.6863 24.0952L98.1723 22.4512C99.1143 22.7202 99.6803 22.8562 100.571 23.1542C101.082 23.3142 101.244 23.6632 101.244 24.0952C101.218 24.9302 100.41 25.9282 99.7633 25.7412L97.4453 24.9852L97.6863 24.0952ZM96.9863 26.7892L98.9803 27.4112L99.4933 31.4532C100.355 31.7752 100.895 31.9922 101.65 32.2862L101.028 27.6802C102.591 27.3282 103.372 25.6322 103.291 24.0952C103.236 22.9382 102.726 21.8842 101.728 21.5632C100.032 21.0242 98.3333 20.4312 96.6103 20.0002L95.3703 24.0952L93.6733 29.8082C94.5873 30.0512 95.1523 30.1582 96.0173 30.4002L96.9863 26.7892Z" fill="white"/>
<path fill-rule="evenodd" clip-rule="evenodd" d="M53.2528 27.2221C54.2768 26.6271 55.0048 27.9751 54.9238 28.9201C54.8988 29.2161 54.7618 29.4591 54.5478 29.5921L52.3908 30.7241L51.3388 28.9201L51.0718 28.4611C51.9338 27.9501 52.4198 27.6531 53.2528 27.2221ZM53.2278 36.7881C54.0638 36.3021 54.5208 35.9781 55.3008 35.5211L53.3628 32.3151L55.1948 31.3171L58.4538 33.7431C59.2898 33.3641 59.8288 33.1221 60.5548 32.7721L56.8108 30.0241C57.0238 29.6751 57.1348 29.2961 57.1878 28.9201C57.3758 26.7091 54.7358 24.2841 52.9018 25.2821C51.3388 26.1181 49.7258 26.9251 48.2148 27.8681L48.8098 28.9201L53.2278 36.7881Z" fill="white"/>
<mask id="mask0" style="mask-type:alpha" maskUnits="userSpaceOnUse" x="0" y="0" width="164" height="164">
<path fill-rule="evenodd" clip-rule="evenodd" d="M0 0H163.523V163.416H0V0Z" fill="white"/>
</mask>
<g mask="url(#mask0)">
<path fill-rule="evenodd" clip-rule="evenodd" d="M145.462 96.2856C145.193 97.3906 144.358 98.1976 143.066 97.8206L133.365 94.9656C132.447 94.7496 131.692 93.7786 131.774 92.5926C135.248 74.5126 130.805 59.8536 120.216 48.1046C119.137 47.3496 119.029 45.7886 120.051 44.6816L127.086 37.6496C127.57 36.8416 129.106 36.6816 130.076 37.8376C143.603 52.0946 150.503 74.0006 145.462 96.2856V96.2856ZM142.471 105.555C132.906 129.807 109.167 147.026 81.7095 147.026C54.2495 147.026 30.5935 129.888 21.0525 105.638C20.5405 104.317 21.1605 103.372 22.1835 103.021L31.8855 99.6816C32.4255 99.5196 33.7705 99.4906 34.3375 100.921C41.8815 119.756 60.5035 132.932 81.7095 132.932C102.917 132.932 121.212 120.024 129.053 101.219C129.78 99.4906 131.1 99.5196 131.64 99.6816L141.343 103.021C142.364 103.372 142.957 104.288 142.471 105.555V105.555ZM18.2255 96.2856C13.1825 74.0006 20.0565 52.1746 33.5555 37.9456C34.6595 36.8416 35.8735 36.8416 36.5995 37.6496L43.6345 44.6826C44.6575 45.7886 44.5495 47.3496 43.4715 48.1046C32.8805 59.8536 28.4375 74.5126 31.9125 92.5926C31.9925 93.7786 31.2375 94.7476 30.3235 94.9656L20.6215 97.8206C19.3275 98.1976 18.4915 97.3916 18.2255 96.2856V96.2856ZM116.253 54.2206L93.4575 65.2426C91.8145 66.0526 90.3585 65.2696 90.2245 63.3836L88.3925 38.1356C88.2015 35.5486 89.2805 35.6286 90.5205 35.9246C101.433 38.5386 109.384 43.1736 117.089 51.2576C118.707 52.9826 117.548 53.6026 116.253 54.2206V54.2206ZM101.896 83.5136C100.374 82.4936 100.322 80.8446 101.89 79.7826L122.837 65.5716C124.984 64.1146 125.453 65.0896 125.818 66.3106C129.009 77.0686 128.97 86.2706 125.822 96.9866C125.138 99.2476 124.022 98.5536 122.837 97.7456L101.896 83.5136ZM88.4445 125.093L90.2765 99.8426C90.4125 98.0356 91.8145 97.1466 93.5115 97.9826L116.309 109.003C118.652 110.137 118.031 111.025 117.143 111.967C109.41 120.107 101.457 124.686 90.5725 127.301C88.2825 127.866 88.3375 126.52 88.4445 125.093V125.093ZM65.8535 81.7076C65.8535 72.9356 72.9895 65.7996 81.7615 65.7996C90.5335 65.7996 97.6705 72.9356 97.6705 81.7076C97.6705 90.4796 90.5335 97.6166 81.7615 97.6166C72.9895 97.6166 65.8535 90.4796 65.8535 81.7076V81.7076ZM47.7565 109.329L70.5535 98.2786C72.1985 97.4966 73.6515 98.2786 73.7875 100.139L75.6465 125.414C75.8095 128.001 74.7565 127.921 73.4885 127.598C62.5765 125.011 54.6285 120.376 46.9205 112.265C45.3045 110.568 46.4895 109.946 47.7565 109.329V109.329ZM46.5245 51.4576C50.3535 47.4426 54.2395 44.2796 58.5215 41.7926C62.8585 39.2686 67.6005 37.4406 73.0935 36.1246C74.3325 35.8286 75.4105 35.7466 75.2235 38.3356L73.3915 63.5836C73.3245 64.5036 72.9435 65.1586 72.3795 65.4976C71.7885 65.8496 70.9985 65.8566 70.1565 65.4426L47.3605 54.4226C46.0665 53.8036 44.9065 53.1826 46.5245 51.4576V51.4576ZM61.7535 79.9676C63.2735 80.9866 63.3265 82.6386 61.7615 83.6976L40.8095 97.9076C38.6645 99.3656 38.1955 98.3926 37.8305 97.1706C34.6375 86.4136 34.6775 77.2116 37.8245 66.4936C38.5075 64.2326 39.6255 64.9276 40.8095 65.7366L61.7535 79.9676ZM41.0735 30.7226C52.2305 21.8596 66.4035 16.4166 81.7095 16.4166C97.0125 16.4166 111.053 21.8596 122.371 30.6976C123.826 31.8566 123.825 33.0426 123.07 33.9036L116.308 41.3686C115.335 42.4196 114.342 42.2306 112.967 41.1806C104.344 34.4716 93.4015 30.5616 81.7095 30.5616C70.0145 30.5616 59.0745 34.4966 50.5315 41.1806C49.1855 42.2586 48.1865 42.4196 47.2175 41.3686L40.4555 33.9036C39.7005 33.0426 39.6725 31.8566 41.0735 30.7226V30.7226ZM163.383 84.4276C163.571 82.9186 163.571 80.6826 163.383 79.2026C159.559 76.9116 154.839 75.8606 150.691 75.8356C150.53 73.8106 150.234 71.7916 149.882 69.7686C153.871 68.7186 158.181 66.4546 161.281 63.2506C161.066 61.7666 160.499 59.5846 159.934 58.2116C155.649 56.9996 150.827 57.1856 146.811 58.2646C146.138 56.4036 145.328 54.5466 144.492 52.6866C148.05 50.6116 151.634 47.3226 153.816 43.4436C153.466 42.6126 152.922 41.5926 152.355 40.6526C151.967 40.0066 151.565 39.3976 151.204 38.9156C146.731 38.8356 142.122 40.2906 138.51 42.3096C137.351 40.6666 136.113 39.0516 134.792 37.4326C137.73 34.4966 140.317 30.4016 141.423 26.0896C140.48 24.8776 138.889 23.2886 137.73 22.3706C133.39 23.4746 129.319 26.0616 126.384 28.9726C124.849 27.6526 123.205 26.3576 121.509 25.1456C123.61 21.5626 125.066 16.9286 124.983 12.4826C123.772 11.5396 121.858 10.4326 120.457 9.86658C116.576 12.0236 113.317 15.5796 111.27 19.1376C109.411 18.2486 107.414 17.4126 105.395 16.6846C106.5 12.7236 106.716 7.87358 105.475 3.59058C104.074 2.99658 101.919 2.42958 100.437 2.21358C97.2315 5.34258 94.9935 9.62558 93.9145 13.5866C91.8675 13.2086 89.7655 12.9396 87.7175 12.8066C87.7425 8.70958 86.6935 3.96758 84.4025 0.140575C83.6575 0.0465755 82.7355 0.00157549 81.8165 -0.000424509C80.8705 -0.00242451 79.9275 0.0425755 79.1765 0.140575C76.8865 3.96758 75.8345 8.68158 75.8345 12.8066C73.7325 12.9396 71.6575 13.2376 69.6095 13.5866C68.5325 9.59758 66.2685 5.28658 63.0615 2.18758C61.5785 2.40358 59.3965 2.96958 58.0235 3.53558C56.8115 7.82058 56.9995 12.6426 58.0755 16.6576C56.1085 17.4126 54.1165 18.2736 52.2025 19.1646C50.1275 15.6086 46.8405 12.0236 42.9615 9.84158C42.2415 10.1446 41.3845 10.5886 40.5585 11.0706C39.7705 11.5296 39.0115 12.0196 38.4325 12.4556C38.3525 16.9286 39.8075 21.5356 41.8825 25.1456C40.3445 26.3056 38.7835 27.4916 37.3015 28.7586C34.3655 25.8206 30.2685 23.2336 25.9575 22.1276C24.7435 23.0726 23.1555 24.6616 22.2375 25.8206C23.3435 30.1586 25.9285 34.2256 28.8385 37.1646C27.5485 38.7796 26.2265 40.4786 25.0125 42.2046C21.4565 40.1296 16.8225 38.6746 12.3495 38.7266C11.9075 39.3116 11.4235 40.0646 10.9745 40.8396C10.4875 41.6796 10.0425 42.5416 9.7345 43.2536C11.9175 47.1626 15.4755 50.4226 19.0585 52.5236C18.2505 54.3306 17.4675 56.1896 16.7695 58.0766C12.7535 57.0246 7.9025 56.8086 3.6175 58.0496C3.0255 59.4496 2.4585 61.6046 2.2445 63.0876C5.3695 66.2936 9.6545 68.5296 13.6435 69.5826C13.3455 71.5756 13.0765 73.6246 12.8605 75.6726C8.7115 75.6726 3.9685 76.7236 0.1425 79.0146C-0.0475 80.5216 -0.0475 82.7606 0.1425 84.2406C3.9685 86.5316 8.6835 87.5806 12.8335 87.5806C13.0235 89.6556 13.3455 91.7586 13.6965 93.8066C9.7075 94.9116 5.3965 97.1726 2.2975 100.382C2.5115 101.862 3.0805 104.047 3.6455 105.42C7.9285 106.634 12.7535 106.445 16.7955 105.367C17.5225 107.254 18.3305 109.14 19.2205 110.944C15.6635 112.994 12.0805 116.281 9.8955 120.16C10.1035 120.646 10.3765 121.2 10.6805 121.761C11.2485 122.818 11.9315 123.914 12.5115 124.686C16.9835 124.769 21.5915 123.311 25.1755 121.266C26.3615 122.963 27.6545 124.606 28.9745 126.197C26.0385 129.107 23.4515 133.202 22.3455 137.513C23.2885 138.727 24.8795 140.315 26.0385 141.233C30.3765 140.129 34.4455 137.54 37.3815 134.657C38.9445 135.977 40.6155 137.244 42.3395 138.458C40.3195 142.039 38.8645 146.676 38.9175 151.151C40.1315 152.065 42.0705 153.171 43.4455 153.764C47.3525 151.581 50.6115 148.023 52.7145 144.412C54.4655 145.195 56.3245 145.948 58.2115 146.65C57.1605 150.609 56.9445 155.462 58.1865 159.745C59.5865 160.337 61.7415 160.904 63.2245 161.118C66.4315 157.994 68.6665 153.709 69.6905 149.749C71.6855 150.151 73.7875 150.422 75.9415 150.609C75.9685 154.707 77.0215 159.449 79.3105 163.275C80.0335 163.365 80.9225 163.412 81.8165 163.416C82.7885 163.418 83.7665 163.371 84.5365 163.275C86.8265 159.449 87.8785 154.732 87.9055 150.582C89.8985 150.422 91.9205 150.098 93.8615 149.749C94.9115 153.736 97.1765 158.047 100.382 161.145C101.864 160.93 104.047 160.365 105.422 159.798C106.634 155.515 106.445 150.69 105.367 146.65C107.309 145.921 109.192 145.087 111.052 144.197C113.126 147.753 116.416 151.338 120.295 153.52C121.697 152.928 123.636 151.797 124.824 150.906C124.904 146.432 123.448 141.825 121.399 138.215C123.017 137.081 124.607 135.814 126.144 134.522C129.108 137.434 133.203 140.019 137.514 141.126C138.726 140.182 140.317 138.594 141.234 137.434C140.129 133.095 137.542 129.027 134.632 126.089C135.926 124.526 137.191 122.855 138.402 121.131C141.989 123.179 146.622 124.632 151.07 124.552C151.469 124.04 151.898 123.394 152.301 122.72C152.851 121.804 153.357 120.833 153.684 120.025C151.526 116.145 147.969 112.887 144.439 110.757C145.275 108.95 146.029 107.091 146.73 105.231C150.691 106.308 155.541 106.526 159.824 105.287C160.42 103.885 160.983 101.729 161.199 100.248C158.075 97.0396 153.791 94.8016 149.857 93.7526C150.207 91.8106 150.476 89.7906 150.661 87.7966C154.816 87.7666 159.559 86.7176 163.383 84.4276V84.4276Z" fill="white"/>
</g>
<path fill-rule="evenodd" clip-rule="evenodd" d="M73.3793 85.8648C72.7733 84.6278 72.4303 83.2348 72.4303 81.7628C72.4303 80.0868 72.8793 78.5158 73.6553 77.1548C74.4873 75.6998 75.6973 74.4878 77.1543 73.6598C77.8143 73.2858 78.5243 72.9898 79.2733 72.7818L79.4373 70.2828H81.8163H83.5323L83.6573 72.6498C86.0953 73.1598 88.1763 74.6258 89.5063 76.6338C90.4813 78.1038 91.0533 79.8678 91.0533 81.7628C91.0533 83.4878 90.5843 85.1038 89.7653 86.4878C88.1583 89.2148 85.2053 91.0488 81.8163 91.0758H81.7413C78.0703 91.0758 74.8973 88.9518 73.3793 85.8648ZM96.3703 81.7078C96.3703 73.6528 89.8163 67.0988 81.7613 67.0988C73.7063 67.0988 67.1523 73.6528 67.1523 81.7078C67.1523 89.7628 73.7063 96.3168 81.7613 96.3168C89.8163 96.3168 96.3703 89.7628 96.3703 81.7078Z" fill="white"/>
</g>
</svg>
