<svg width="84" height="33" viewBox="0 0 84 33" fill="none" xmlns="http://www.w3.org/2000/svg">
<path fill-rule="evenodd" clip-rule="evenodd" d="M39.1515 12.9244C38.2565 12.9784 37.3725 13.4864 36.8225 13.8814V13.3204C36.8225 13.1354 36.6725 12.9854 36.4865 12.9854H36.4845H35.1295C34.9425 12.9834 34.7905 13.1334 34.7885 13.3194V13.3204V21.5344C34.7885 21.7214 34.9405 21.8714 35.1265 21.8714H35.1295H36.4845C36.6705 21.8724 36.8215 21.7224 36.8225 21.5354V21.5344V15.8584C37.1275 15.6024 38.0745 14.8924 39.2035 14.7934C39.3775 14.7774 39.5095 14.6314 39.5095 14.4564V13.2534C39.5085 13.0664 39.3565 12.9154 39.1695 12.9164C39.1635 12.9164 39.1575 12.9174 39.1515 12.9174V12.9244ZM28.5725 18.0284C27.7755 18.1054 27.3985 18.4694 27.3985 19.1704C27.3985 19.6034 27.5155 20.3314 28.3055 20.3314C29.2445 20.3314 30.5175 19.9764 30.5325 19.9734V17.9184L28.5725 18.0284ZM32.5625 15.7804V21.6724C32.5625 21.8594 32.4105 22.0104 32.2235 22.0104C32.2105 22.0104 32.1985 22.0094 32.1865 22.0084C31.6925 21.9564 31.2245 21.7614 30.8405 21.4454C30.8265 21.4524 29.3035 22.0674 27.9385 22.0674C26.2985 22.0674 25.3565 21.0314 25.3565 19.2214C25.3565 17.4524 26.2195 16.6704 28.3325 16.5114L30.5405 16.3354V15.7984C30.5405 15.1214 30.1355 14.7324 29.4335 14.7324C28.4665 14.7324 27.0865 14.8444 26.3535 14.9104C26.2605 14.9204 26.1675 14.8904 26.0975 14.8284C26.0285 14.7684 25.9865 14.6824 25.9825 14.5904L25.9405 13.4654C25.9315 13.2954 26.0525 13.1454 26.2205 13.1184C26.8785 13.0144 28.5195 12.7764 29.5425 12.7764C31.6015 12.7714 32.5625 13.7304 32.5625 15.7804ZM4.36849 11.5424H3.62449C3.10749 11.5304 2.58949 11.5684 2.07849 11.6534V15.1664C2.47549 15.1944 3.23949 15.2344 4.26449 15.2224C5.58849 15.2094 6.41149 14.5074 6.41149 13.3954C6.41649 12.4954 5.87749 11.5424 4.36849 11.5424ZM8.63949 21.4004C8.68349 21.5044 8.67349 21.6234 8.61449 21.7204C8.55049 21.8134 8.44549 21.8704 8.33349 21.8714H6.75549C6.62149 21.8724 6.49949 21.7934 6.44649 21.6704L4.42849 17.1314C3.42549 17.1314 2.55349 17.0704 2.08349 17.0364V21.5344C2.08349 21.7204 1.93349 21.8704 1.74849 21.8714H1.74749H0.341494C0.154494 21.8734 0.00149401 21.7234 0.000494011 21.5354V21.5344V10.1504C-0.000505989 9.9784 0.129494 9.8334 0.300494 9.8164C1.56049 9.6714 2.82749 9.5954 4.09549 9.5894H4.37649C7.84249 9.5894 8.57349 11.6374 8.57349 13.3524C8.57349 14.7834 7.89049 15.8204 6.48349 16.5184L8.63949 21.4004ZM48.1805 13.1154C48.1175 13.0324 48.0205 12.9844 47.9165 12.9854H46.5975C46.4455 12.9854 46.3125 13.0874 46.2735 13.2354L44.5075 19.8944H44.3675L42.6035 13.2354C42.5645 13.0874 42.4305 12.9844 42.2775 12.9854H40.9625C40.7765 12.9834 40.6245 13.1324 40.6235 13.3184C40.6235 13.3484 40.6265 13.3774 40.6345 13.4064L42.5785 20.8754C42.6765 21.2444 43.0185 21.8714 43.6955 21.8714H44.0725C44.0395 21.9964 44.0055 22.1304 43.9695 22.2444L43.9515 22.3024C43.8455 22.6464 43.6875 23.1664 42.7255 23.1664L41.0395 23.0644C40.9435 23.0564 40.8495 23.0904 40.7815 23.1574C40.7135 23.2254 40.6765 23.3194 40.6805 23.4154L40.7225 24.2944C40.7275 24.4454 40.8325 24.5724 40.9785 24.6074C41.7095 24.7704 42.4525 24.8694 43.2005 24.9024H43.3075C44.5725 24.9024 45.4375 24.0814 45.8715 22.4654C46.3745 20.5704 47.0055 18.1364 47.4665 16.3574L47.9825 14.3734L48.2355 13.4044C48.2635 13.3054 48.2435 13.1974 48.1805 13.1154ZM15.8045 17.3844C15.8045 15.3974 15.2655 14.6234 13.8835 14.6234C12.4495 14.6234 11.9465 15.3444 11.9465 17.3844C11.9465 19.2344 12.2555 20.2334 13.8895 20.2334C15.4895 20.2334 15.8045 19.1894 15.8045 17.3844ZM17.8695 17.3844C17.8695 20.6164 16.6395 22.0664 13.8835 22.0664C11.1275 22.0664 9.87649 20.6164 9.87649 17.3844C9.87649 14.1944 11.1115 12.7714 13.8835 12.7714C16.6035 12.7714 17.8695 14.2364 17.8695 17.3844ZM24.2765 20.4284L24.3365 21.5534C24.3435 21.7204 24.2285 21.8684 24.0635 21.9014C23.5595 22.0034 23.0475 22.0684 22.5345 22.0944C20.4875 22.0944 19.8635 21.3114 19.8635 18.7454V14.8194H19.0785C18.8915 14.8184 18.7405 14.6664 18.7405 14.4804V13.3204C18.7415 13.1354 18.8925 12.9854 19.0785 12.9854H19.8635V11.6064C19.8635 11.4504 19.9695 11.3164 20.1195 11.2784L21.4775 10.9484C21.6565 10.9014 21.8405 11.0084 21.8875 11.1874C21.8955 11.2164 21.8995 11.2454 21.8995 11.2764V12.9854H23.9675C24.1525 12.9864 24.3035 13.1354 24.3035 13.3204V14.4804C24.3035 14.6664 24.1535 14.8184 23.9675 14.8194H21.8935V18.4524C21.8935 19.7084 21.9385 20.1394 22.8195 20.1394C23.1445 20.1394 23.6545 20.1174 23.9275 20.1024C24.1135 20.0954 24.2705 20.2404 24.2765 20.4264V20.4284Z" fill="white"/>
<path fill-rule="evenodd" clip-rule="evenodd" d="M73.3336 26.7242C73.2926 26.7752 73.2356 26.8222 73.1746 26.8572C72.9076 27.0112 72.5736 26.9542 72.3786 26.7242C72.3536 26.6932 72.3326 26.6622 72.3126 26.6262C72.2556 26.5292 72.2296 26.4202 72.2246 26.3132C72.2246 26.0922 72.3376 25.8812 72.5426 25.7632C72.8456 25.5892 73.2306 25.6872 73.4056 25.9952C73.4616 26.0982 73.4926 26.2052 73.4926 26.3132C73.4926 26.4622 73.4366 26.6112 73.3336 26.7242ZM72.3636 25.4712C72.0496 25.6512 71.8756 25.9742 71.8706 26.3132C71.8706 26.4522 71.9016 26.5902 71.9576 26.7242C71.9726 26.7552 71.9886 26.7812 72.0036 26.8112C72.2756 27.2842 72.8816 27.4432 73.3436 27.1752C73.5286 27.0682 73.6666 26.9092 73.7496 26.7242C73.8056 26.5952 73.8366 26.4562 73.8366 26.3132C73.8366 26.1492 73.7956 25.9792 73.7086 25.8262C73.4366 25.3582 72.8306 25.2042 72.3636 25.4712Z" fill="#F6A71E"/>
<path fill-rule="evenodd" clip-rule="evenodd" d="M58.6912 21.482L56.9912 22.467C57.0532 22.586 57.1252 22.724 57.1972 22.837L58.9012 21.852C58.8092 21.703 58.7622 21.621 58.6912 21.482Z" fill="#F6A71E"/>
<path fill-rule="evenodd" clip-rule="evenodd" d="M70.7461 26.1695L71.3931 28.0275C71.5211 27.9865 71.6651 27.9455 71.7931 27.8955L71.1461 26.0355C70.9871 26.0985 70.9001 26.1235 70.7461 26.1695Z" fill="#F6A71E"/>
<path fill-rule="evenodd" clip-rule="evenodd" d="M61.2887 24.9478L61.4887 24.6848C61.0377 24.3108 60.6777 24.0178 60.2617 23.6278L60.0257 23.8648C60.1897 24.0128 60.3287 24.1568 60.4877 24.3108L59.4097 25.5168L59.7327 25.7948L60.7757 24.5618C60.9447 24.6958 61.1147 24.8138 61.2887 24.9478Z" fill="#F6A71E"/>
<path fill-rule="evenodd" clip-rule="evenodd" d="M70.279 26.3335C69.704 26.4625 69.252 26.5645 68.687 26.6515L68.734 26.9855C68.949 26.9495 69.144 26.9245 69.365 26.8935L69.653 28.4895L70.073 28.4025L69.739 26.8215C69.95 26.7705 70.151 26.7135 70.361 26.6565L70.279 26.3335Z" fill="#F6A71E"/>
<path fill-rule="evenodd" clip-rule="evenodd" d="M67.5524 27.9507L67.6864 27.5457L67.8194 27.1397L67.9784 27.5457L68.1334 27.9297L67.5524 27.9507ZM68.0404 26.7237L68.0194 26.6727L67.5784 26.6877L67.5684 26.7237L67.2964 27.5457L66.9314 28.6387C67.0644 28.6437 67.1984 28.6497 67.3264 28.6597L67.4344 28.3097L68.2924 28.2847L68.4154 28.6187C68.5434 28.6027 68.6714 28.5937 68.8054 28.5827L68.3794 27.5457L68.0404 26.7237Z" fill="#F6A71E"/>
<path fill-rule="evenodd" clip-rule="evenodd" d="M76.5729 23.4839L76.5019 23.5769L76.2139 23.9409L75.9929 23.5769L75.7669 23.2129L76.5729 23.4839ZM75.2639 23.0989L75.5519 23.5769L76.3319 24.8599C76.4249 24.7619 76.5119 24.6649 76.5989 24.5729L76.4039 24.2649L76.9429 23.5969L77.2769 23.7199C77.3079 23.6699 77.3439 23.6229 77.3799 23.5769C77.4209 23.5199 77.4619 23.4589 77.5079 23.4019L75.5409 22.7549L75.2639 23.0989Z" fill="#F6A71E"/>
<path fill-rule="evenodd" clip-rule="evenodd" d="M77.7136 22.4673L76.2806 21.6773L76.0906 22.0103L77.8266 22.9713L78.4936 21.7803L78.1906 21.6153L77.7136 22.4673Z" fill="#F6A71E"/>
<path fill-rule="evenodd" clip-rule="evenodd" d="M66.1867 27.8277L65.6067 26.5187C65.4677 26.4877 65.3907 26.4517 65.2567 26.4317L64.8057 28.3727C64.9387 28.4027 65.0727 28.4237 65.2107 28.4437L65.4627 27.2627L66.0487 28.5877C66.1767 28.6027 66.3257 28.6487 66.4797 28.6437L66.7007 26.6417C66.5827 26.6317 66.4487 26.6467 66.3257 26.6267L66.1867 27.8277Z" fill="#F6A71E"/>
<path fill-rule="evenodd" clip-rule="evenodd" d="M74.4328 23.9722L75.2588 24.8552L73.8828 24.4502C73.7698 24.5362 73.6928 24.5682 73.5908 24.6552L74.7768 26.2612C74.8848 26.1792 74.9868 26.0872 75.0898 26.0002L74.3608 25.0392L75.7468 25.4552C75.8448 25.3682 75.9728 25.2812 76.0648 25.1632L74.6888 23.7002C74.6068 23.7832 74.5298 23.8902 74.4328 23.9722Z" fill="#F6A71E"/>
<path fill-rule="evenodd" clip-rule="evenodd" d="M59.774 23.0581L58.855 23.8491L59.322 22.4931C59.235 22.3751 59.209 22.2981 59.122 22.1901L57.469 23.3041C57.546 23.4171 57.633 23.5201 57.715 23.6331L58.706 22.9451L58.233 24.3111C58.316 24.4091 58.393 24.5411 58.511 24.6391L60.036 23.3291C59.954 23.2431 59.851 23.1611 59.774 23.0581Z" fill="#F6A71E"/>
<path fill-rule="evenodd" clip-rule="evenodd" d="M64.2458 26.7242C64.2048 26.8472 64.0868 26.9602 63.9588 26.9092L63.5068 26.7342L63.5118 26.7242L63.5538 26.6122L63.6658 26.2972L64.1588 26.4832C64.2208 26.5082 64.2508 26.5542 64.2618 26.6122C64.2668 26.6472 64.2618 26.6882 64.2458 26.7242ZM64.3338 26.1852L63.4448 25.8452L63.1168 26.6122L63.0708 26.7242L62.6748 27.6482C62.8038 27.7142 62.9318 27.7562 63.0548 27.7962L63.3628 27.0362L63.7528 27.2022L63.7738 28.0692C63.9228 28.1252 64.0668 28.1662 64.1998 28.1972L64.1388 27.2842C64.4208 27.2472 64.5998 26.9862 64.6258 26.7242C64.6308 26.6882 64.6308 26.6472 64.6308 26.6122C64.6158 26.4262 64.5238 26.2562 64.3338 26.1852Z" fill="#F6A71E"/>
<path fill-rule="evenodd" clip-rule="evenodd" d="M62.0026 25.482C62.2696 25.63 62.5416 25.785 62.8286 25.923L63.0036 25.63C62.6036 25.43 62.2286 25.183 61.8786 24.953L60.7646 26.59C61.1866 26.868 61.5766 27.104 62.0076 27.355L62.1816 27.068L61.2946 26.54L61.5866 26.108L62.1816 26.462L62.3616 26.19C62.1666 26.087 61.9666 25.964 61.7666 25.836L62.0026 25.482Z" fill="#F6A71E"/>
<path fill-rule="evenodd" clip-rule="evenodd" d="M63.7991 5.8941C63.7941 5.5601 64.0411 5.2891 64.3741 5.2621C64.7241 5.2321 65.0271 5.4841 65.0571 5.8321C65.0571 5.8531 65.0621 5.8731 65.0571 5.8941C65.0571 6.2231 64.8111 6.4901 64.4821 6.5201C64.1381 6.5511 63.8301 6.2991 63.7991 5.9461V5.8941ZM64.5031 6.8801C65.0161 6.8291 65.4061 6.3971 65.4061 5.8941C65.4061 5.8631 65.4011 5.8371 65.4011 5.8121C65.3551 5.2671 64.8731 4.8731 64.3341 4.9181C63.8251 4.9651 63.4351 5.3851 63.4351 5.8941C63.4351 5.9251 63.4401 5.9511 63.4401 5.9811C63.4921 6.5261 63.9691 6.9261 64.5031 6.8801Z" fill="#F6A71E"/>
<path fill-rule="evenodd" clip-rule="evenodd" d="M68.3946 5.4117L68.5996 4.9897L68.7176 5.4117L68.8306 5.8277C68.6306 5.7967 68.4246 5.7757 68.2196 5.7657L68.3946 5.4117ZM68.0706 6.0987C68.3426 6.1097 68.6046 6.1197 68.8926 6.1667L69.0056 6.5307C69.1486 6.5467 69.2566 6.5617 69.4116 6.5927L69.0926 5.4117L68.8556 4.5387L68.4196 4.4977L67.9786 5.4117L67.4856 6.4287C67.6556 6.4327 67.7216 6.4287 67.8916 6.4377L68.0706 6.0987Z" fill="#F6A71E"/>
<path fill-rule="evenodd" clip-rule="evenodd" d="M66.2638 4.8882L66.4328 6.4942L66.8538 6.4582L66.6898 4.8522L67.3218 4.8112L67.2958 4.4612C66.5928 4.5022 66.3048 4.5292 65.5918 4.6312L65.6378 4.9752L66.2638 4.8882Z" fill="#F6A71E"/>
<path fill-rule="evenodd" clip-rule="evenodd" d="M72.4298 7.7017L72.8558 6.8857L74.0118 6.3507C73.8928 6.2637 73.7598 6.2027 73.6368 6.1257L72.8358 6.4837L72.6918 5.6277C72.5278 5.5507 72.4298 5.5097 72.2608 5.4367L72.4868 6.6897L72.0598 7.5017L72.4298 7.7017Z" fill="#F6A71E"/>
<path fill-rule="evenodd" clip-rule="evenodd" d="M70.5763 5.5913L70.6693 5.2783C70.8483 5.3283 70.9563 5.3553 71.1263 5.4113C71.2233 5.4423 71.2543 5.5083 71.2543 5.5913C71.2493 5.7503 71.0953 5.9403 70.9723 5.9043L70.5303 5.7603L70.5763 5.5913ZM70.4433 6.1043L70.8233 6.2233L70.9203 6.9923C71.0853 7.0543 71.1873 7.0963 71.3313 7.1523L71.2133 6.2743C71.5113 6.2073 71.6593 5.8843 71.6443 5.5913C71.6343 5.3703 71.5363 5.1693 71.3463 5.1093C71.0233 5.0053 70.7003 4.8933 70.3713 4.8113L70.1353 5.5913L69.8113 6.6793C69.9863 6.7263 70.0933 6.7463 70.2583 6.7923L70.4433 6.1043Z" fill="#F6A71E"/>
<path fill-rule="evenodd" clip-rule="evenodd" d="M62.1099 6.187C62.3049 6.074 62.4439 6.331 62.4279 6.51C62.4229 6.567 62.3979 6.613 62.3569 6.638L61.9459 6.854L61.7449 6.51L61.6939 6.423C61.8589 6.326 61.9509 6.269 62.1099 6.187ZM62.1049 8.009C62.2639 7.916 62.3519 7.855 62.4999 7.768L62.1309 7.157L62.4799 6.967L63.1009 7.429C63.2599 7.357 63.3629 7.311 63.5009 7.245L62.7879 6.721C62.8289 6.654 62.8499 6.583 62.8599 6.51C62.8959 6.089 62.3929 5.627 62.0429 5.817C61.7449 5.976 61.4379 6.13 61.1499 6.31L61.2629 6.51L62.1049 8.009Z" fill="#F6A71E"/>
<mask id="mask0" style="mask-type:alpha" maskUnits="userSpaceOnUse" x="51" y="0" width="33" height="33">
<path fill-rule="evenodd" clip-rule="evenodd" d="M51.9636 0.999702H83.1206V32.1372H51.9636V0.999702Z" fill="white"/>
</mask>
<g mask="url(#mask0)">
<path fill-rule="evenodd" clip-rule="evenodd" d="M79.6794 19.3462C79.6284 19.5572 79.4694 19.7102 79.2224 19.6382L77.3744 19.0942C77.2004 19.0532 77.0554 18.8682 77.0714 18.6422C77.7334 15.1982 76.8874 12.4052 74.8694 10.1652C74.6634 10.0222 74.6434 9.7242 74.8374 9.5132L76.1784 8.1732C76.2704 8.0202 76.5634 7.9892 76.7484 8.2092C79.3254 10.9262 80.6394 15.1002 79.6794 19.3462ZM79.1094 21.1122C77.2874 25.7332 72.7634 29.0142 67.5324 29.0142C62.3004 29.0142 57.7924 25.7482 55.9744 21.1272C55.8774 20.8762 55.9954 20.6962 56.1904 20.6292L58.0384 19.9922C58.1414 19.9622 58.3984 19.9562 58.5064 20.2292C59.9434 23.8182 63.4924 26.3282 67.5324 26.3282C71.5734 26.3282 75.0584 23.8682 76.5534 20.2852C76.6914 19.9562 76.9434 19.9622 77.0454 19.9922L78.8944 20.6292C79.0894 20.6962 79.2024 20.8702 79.1094 21.1122ZM55.4364 19.3462C54.4754 15.1002 55.7844 10.9412 58.3574 8.2302C58.5674 8.0202 58.7994 8.0202 58.9374 8.1732L60.2774 9.5142C60.4724 9.7242 60.4514 10.0222 60.2464 10.1652C58.2284 12.4052 57.3824 15.1982 58.0444 18.6422C58.0594 18.8682 57.9154 19.0532 57.7414 19.0942L55.8924 19.6382C55.6464 19.7102 55.4874 19.5572 55.4364 19.3462ZM74.1144 11.3302L69.7704 13.4312C69.4574 13.5852 69.1804 13.4362 69.1544 13.0762L68.8054 8.2662C68.7694 7.7732 68.9744 7.7882 69.2114 7.8452C71.2904 8.3432 72.8044 9.2262 74.2734 10.7662C74.5814 11.0952 74.3604 11.2132 74.1144 11.3302ZM71.3784 16.9122C71.0884 16.7182 71.0784 16.4042 71.3774 16.2012L75.3684 13.4932C75.7774 13.2162 75.8664 13.4022 75.9364 13.6352C76.5444 15.6842 76.5364 17.4382 75.9374 19.4792C75.8064 19.9102 75.5944 19.7782 75.3684 19.6242L71.3784 16.9122ZM68.8154 24.8342L69.1644 20.0242C69.1904 19.6792 69.4574 19.5102 69.7814 19.6692L74.1244 21.7692C74.5714 21.9852 74.4524 22.1542 74.2834 22.3332C72.8104 23.8852 71.2954 24.7572 69.2214 25.2552C68.7844 25.3632 68.7954 25.1072 68.8154 24.8342ZM64.5114 16.5682C64.5114 14.8972 65.8704 13.5372 67.5424 13.5372C69.2134 13.5372 70.5734 14.8972 70.5734 16.5682C70.5734 18.2402 69.2134 19.5992 67.5424 19.5992C65.8704 19.5992 64.5114 18.2402 64.5114 16.5682ZM61.0624 21.8302L65.4064 19.7262C65.7204 19.5762 65.9964 19.7262 66.0224 20.0792L66.3774 24.8962C66.4084 25.3892 66.2074 25.3732 65.9664 25.3122C63.8874 24.8192 62.3724 23.9362 60.9034 22.3902C60.5964 22.0672 60.8214 21.9492 61.0624 21.8302ZM60.8284 10.8042C61.5574 10.0392 62.2984 9.4372 63.1144 8.9632C63.9404 8.4822 64.8444 8.1342 65.8904 7.8832C66.1264 7.8262 66.3324 7.8112 66.2964 8.3042L65.9474 13.1152C65.9344 13.2902 65.8624 13.4152 65.7544 13.4802C65.6414 13.5472 65.4914 13.5482 65.3314 13.4692L60.9874 11.3692C60.7414 11.2512 60.5194 11.1332 60.8284 10.8042ZM63.7294 16.2372C64.0194 16.4312 64.0294 16.7452 63.7314 16.9482L59.7394 19.6552C59.3304 19.9332 59.2414 19.7472 59.1714 19.5142C58.5634 17.4652 58.5714 15.7112 59.1704 13.6692C59.3004 13.2392 59.5134 13.3702 59.7394 13.5252L63.7294 16.2372ZM59.7894 6.8542C61.9154 5.1652 64.6164 4.1272 67.5324 4.1272C70.4484 4.1272 73.1234 5.1652 75.2794 6.8492C75.5564 7.0702 75.5564 7.2952 75.4134 7.4592L74.1244 8.8822C73.9394 9.0822 73.7494 9.0462 73.4884 8.8462C71.8454 7.5682 69.7604 6.8232 67.5324 6.8232C65.3044 6.8232 63.2194 7.5732 61.5924 8.8462C61.3354 9.0522 61.1444 9.0822 60.9604 8.8822L59.6714 7.4592C59.5284 7.2952 59.5224 7.0702 59.7894 6.8542ZM83.0944 17.0862C83.1294 16.7992 83.1294 16.3732 83.0944 16.0912C82.3654 15.6552 81.4664 15.4542 80.6764 15.4502C80.6454 15.0642 80.5884 14.6792 80.5214 14.2932C81.2814 14.0932 82.1024 13.6612 82.6934 13.0512C82.6524 12.7692 82.5444 12.3532 82.4374 12.0912C81.6204 11.8612 80.7014 11.8962 79.9364 12.1012C79.8084 11.7462 79.6544 11.3932 79.4944 11.0382C80.1724 10.6432 80.8554 10.0172 81.2714 9.2782C81.2044 9.1192 81.1004 8.9252 80.9924 8.7452C80.9184 8.6222 80.8424 8.5062 80.7734 8.4142C79.9214 8.4002 79.0434 8.6772 78.3544 9.0622C78.1344 8.7482 77.8984 8.4412 77.6464 8.1322C78.2064 7.5732 78.6994 6.7922 78.9094 5.9712C78.7304 5.7402 78.4274 5.4372 78.2064 5.2622C77.3794 5.4732 76.6034 5.9652 76.0444 6.5202C75.7514 6.2692 75.4384 6.0222 75.1154 5.7912C75.5154 5.1092 75.7934 4.2252 75.7774 3.3782C75.5464 3.1992 75.1814 2.9882 74.9154 2.8802C74.1754 3.2902 73.5544 3.9682 73.1644 4.6462C72.8104 4.4772 72.4294 4.3182 72.0454 4.1792C72.2554 3.4242 72.2964 2.5002 72.0604 1.6842C71.7934 1.5712 71.3834 1.4632 71.1004 1.4212C70.4894 2.0182 70.0634 2.8332 69.8574 3.5882C69.4674 3.5172 69.0674 3.4652 68.6774 3.4402C68.6814 2.6592 68.4824 1.7562 68.0454 1.0272C67.9034 1.0092 67.7274 1.0002 67.5524 0.999199C67.3724 0.999199 67.1924 1.0082 67.0494 1.0272C66.6134 1.7562 66.4124 2.6542 66.4124 3.4402C66.0124 3.4652 65.6164 3.5222 65.2264 3.5882C65.0214 2.8282 64.5904 2.0072 63.9794 1.4162C63.6964 1.4582 63.2804 1.5662 63.0194 1.6732C62.7884 2.4902 62.8244 3.4082 63.0294 4.1742C62.6544 4.3182 62.2744 4.4822 61.9094 4.6522C61.5144 3.9742 60.8884 3.2902 60.1494 2.8752C60.0124 2.9332 59.8484 3.0172 59.6914 3.1092C59.5414 3.1972 59.3964 3.2902 59.2864 3.3732C59.2714 4.2252 59.5484 5.1032 59.9434 5.7912C59.6504 6.0122 59.3534 6.2382 59.0714 6.4802C58.5114 5.9192 57.7304 5.4272 56.9094 5.2162C56.6784 5.3962 56.3754 5.6992 56.2004 5.9192C56.4114 6.7462 56.9044 7.5212 57.4584 8.0812C57.2124 8.3892 56.9604 8.7122 56.7294 9.0412C56.0524 8.6462 55.1684 8.3682 54.3164 8.3792C54.2324 8.4912 54.1404 8.6342 54.0544 8.7822C53.9624 8.9412 53.8774 9.1062 53.8184 9.2422C54.2344 9.9862 54.9124 10.6072 55.5954 11.0072C55.4414 11.3522 55.2914 11.7062 55.1584 12.0662C54.3934 11.8662 53.4694 11.8252 52.6534 12.0602C52.5404 12.3272 52.4314 12.7382 52.3914 13.0202C52.9864 13.6312 53.8034 14.0572 54.5634 14.2582C54.5064 14.6382 54.4554 15.0282 54.4144 15.4182C53.6234 15.4182 52.7204 15.6182 51.9914 16.0552C51.9544 16.3422 51.9544 16.7692 51.9914 17.0512C52.7204 17.4882 53.6174 17.6872 54.4084 17.6872C54.4454 18.0822 54.5064 18.4832 54.5734 18.8732C53.8134 19.0842 52.9924 19.5152 52.4014 20.1262C52.4424 20.4082 52.5504 20.8252 52.6584 21.0862C53.4744 21.3182 54.3934 21.2822 55.1634 21.0762C55.3024 21.4362 55.4564 21.7952 55.6254 22.1392C54.9484 22.5302 54.2654 23.1562 53.8484 23.8952C53.8884 23.9882 53.9404 24.0932 53.9984 24.2002C54.1064 24.4012 54.2374 24.6102 54.3474 24.7572C55.1994 24.7732 56.0774 24.4952 56.7604 24.1062C56.9864 24.4292 57.2324 24.7422 57.4844 25.0452C56.9254 25.5992 56.4314 26.3792 56.2214 27.2012C56.4014 27.4322 56.7034 27.7352 56.9254 27.9092C57.7514 27.7002 58.5264 27.2062 59.0864 26.6572C59.3844 26.9082 59.7024 27.1502 60.0314 27.3812C59.6454 28.0642 59.3684 28.9472 59.3784 29.7992C59.6104 29.9742 59.9794 30.1852 60.2414 30.2972C60.9864 29.8812 61.6074 29.2032 62.0074 28.5162C62.3414 28.6642 62.6954 28.8082 63.0544 28.9422C62.8544 29.6972 62.8134 30.6212 63.0504 31.4372C63.3174 31.5502 63.7274 31.6582 64.0104 31.6992C64.6214 31.1042 65.0474 30.2862 65.2414 29.5332C65.6224 29.6092 66.0224 29.6602 66.4324 29.6972C66.4384 30.4772 66.6384 31.3802 67.0754 32.1102C67.2134 32.1272 67.3824 32.1362 67.5524 32.1372C67.7384 32.1372 67.9244 32.1282 68.0714 32.1102C68.5074 31.3802 68.7074 30.4822 68.7134 29.6912C69.0924 29.6602 69.4774 29.5992 69.8474 29.5332C70.0474 30.2922 70.4794 31.1142 71.0904 31.7032C71.3724 31.6622 71.7884 31.5552 72.0504 31.4482C72.2814 30.6312 72.2454 29.7122 72.0394 28.9422C72.4094 28.8032 72.7684 28.6442 73.1234 28.4752C73.5184 29.1522 74.1454 29.8352 74.8844 30.2512C75.1514 30.1382 75.5204 29.9222 75.7464 29.7532C75.7624 28.9012 75.4854 28.0232 75.0944 27.3352C75.4034 27.1182 75.7054 26.8772 75.9984 26.6312C76.5634 27.1862 77.3444 27.6792 78.1654 27.8892C78.3964 27.7092 78.6994 27.4072 78.8734 27.1862C78.6634 26.3592 78.1704 25.5842 77.6164 25.0252C77.8624 24.7272 78.1034 24.4082 78.3344 24.0792C79.0174 24.4702 79.9004 24.7462 80.7474 24.7322C80.8244 24.6342 80.9054 24.5112 80.9824 24.3822C81.0874 24.2082 81.1834 24.0232 81.2464 23.8682C80.8354 23.1302 80.1574 22.5092 79.4844 22.1032C79.6434 21.7592 79.7874 21.4052 79.9214 21.0502C80.6764 21.2552 81.5994 21.2972 82.4164 21.0612C82.5294 20.7932 82.6374 20.3832 82.6784 20.1012C82.0824 19.4902 81.2664 19.0632 80.5164 18.8642C80.5834 18.4932 80.6354 18.1092 80.6704 17.7282C81.4614 17.7232 82.3654 17.5232 83.0944 17.0862Z" fill="#F6A71E"/>
</g>
<path fill-rule="evenodd" clip-rule="evenodd" d="M65.9451 17.3599C65.8301 17.1249 65.7641 16.8589 65.7641 16.5789C65.7641 16.2589 65.8501 15.9609 65.9981 15.7009C66.1561 15.4229 66.3871 15.1929 66.6641 15.0349C66.7901 14.9639 66.9251 14.9069 67.0681 14.8679L67.0991 14.3909H67.5521H67.8801L67.9031 14.8419C68.3681 14.9399 68.7641 15.2189 69.0181 15.6009C69.2031 15.8809 69.3131 16.2169 69.3131 16.5789C69.3131 16.9079 69.2231 17.2149 69.0671 17.4789C68.7611 17.9989 68.1981 18.3479 67.5521 18.3529H67.5381C66.8391 18.3529 66.2341 17.9489 65.9451 17.3599ZM70.3261 16.5679C70.3261 15.0339 69.0771 13.7849 67.5421 13.7849C66.0071 13.7849 64.7581 15.0339 64.7581 16.5679C64.7581 18.1029 66.0071 19.3519 67.5421 19.3519C69.0771 19.3519 70.3261 18.1029 70.3261 16.5679Z" fill="#F6A71E"/>
<path fill-rule="evenodd" clip-rule="evenodd" d="M0.511475 31.0074V30.5304C0.562475 30.5784 0.624475 30.6224 0.696475 30.6604C0.767475 30.6994 0.843475 30.7324 0.922475 30.7584C1.00147 30.7844 1.08147 30.8054 1.16147 30.8204C1.24147 30.8334 1.31547 30.8414 1.38347 30.8414C1.61747 30.8414 1.79247 30.7954 1.90747 30.7024C2.02247 30.6114 2.08047 30.4784 2.08047 30.3044C2.08047 30.2114 2.06147 30.1304 2.02247 30.0614C1.98447 29.9924 1.93147 29.9294 1.86347 29.8724C1.79547 29.8154 1.71547 29.7604 1.62247 29.7084C1.52947 29.6564 1.42947 29.6014 1.32247 29.5434C1.20847 29.4834 1.10347 29.4204 1.00547 29.3584C0.907475 29.2954 0.821475 29.2264 0.749475 29.1514C0.677475 29.0754 0.619475 28.9894 0.578475 28.8954C0.536475 28.7994 0.515475 28.6874 0.515475 28.5594C0.515475 28.4014 0.548475 28.2644 0.613475 28.1484C0.678475 28.0314 0.763475 27.9364 0.869475 27.8614C0.974475 27.7844 1.09547 27.7294 1.23047 27.6924C1.36547 27.6544 1.50347 27.6364 1.64347 27.6364C1.96347 27.6364 2.19747 27.6774 2.34347 27.7594V28.2144C2.15147 28.0724 1.90547 28.0024 1.60547 28.0024C1.52247 28.0024 1.43947 28.0114 1.35647 28.0294C1.27347 28.0484 1.19847 28.0784 1.13447 28.1204C1.06947 28.1624 1.01647 28.2164 0.975475 28.2814C0.934475 28.3474 0.914475 28.4284 0.914475 28.5234C0.914475 28.6114 0.929475 28.6874 0.961475 28.7514C0.991475 28.8164 1.03747 28.8744 1.09747 28.9274C1.15847 28.9804 1.23147 29.0314 1.31847 29.0814C1.40547 29.1314 1.50547 29.1864 1.61847 29.2444C1.73547 29.3064 1.84447 29.3704 1.94947 29.4384C2.05347 29.5044 2.14447 29.5794 2.22347 29.6614C2.30247 29.7434 2.36447 29.8344 2.40947 29.9334C2.45647 30.0324 2.47947 30.1474 2.47947 30.2764C2.47947 30.4454 2.44847 30.5894 2.38547 30.7074C2.32247 30.8254 2.23847 30.9214 2.13147 30.9954C2.02547 31.0694 1.90247 31.1224 1.76347 31.1554C1.62447 31.1884 1.47847 31.2044 1.32447 31.2044C1.27347 31.2044 1.20947 31.2004 1.13447 31.1924C1.05847 31.1834 0.981475 31.1704 0.903475 31.1534C0.824475 31.1364 0.750475 31.1154 0.680475 31.0904C0.610475 31.0664 0.553475 31.0374 0.511475 31.0074Z" fill="white"/>
<path fill-rule="evenodd" clip-rule="evenodd" d="M4.28642 29.8999L3.72742 29.9819C3.55542 30.0069 3.42542 30.0519 3.33742 30.1179C3.25042 30.1829 3.20642 30.2979 3.20642 30.4629C3.20642 30.5839 3.24642 30.6819 3.32742 30.7579C3.40842 30.8349 3.51542 30.8729 3.65042 30.8729C3.83442 30.8729 3.98642 30.8039 4.10642 30.6669C4.22642 30.5299 4.28642 30.3559 4.28642 30.1459V29.8999ZM4.65842 31.1469H4.28642V30.7619H4.27742C4.11642 31.0569 3.87842 31.2049 3.56442 31.2049C3.33342 31.2049 3.15242 31.1399 3.02142 31.0099C2.89142 30.8789 2.82642 30.7079 2.82642 30.4919C2.82642 30.0319 3.08142 29.7629 3.59142 29.6879L4.28642 29.5849C4.28642 29.1659 4.12742 28.9559 3.80842 28.9559C3.52942 28.9559 3.27742 29.0569 3.05242 29.2589V28.8549C3.28042 28.7009 3.54342 28.6239 3.84042 28.6239C4.38542 28.6239 4.65842 28.9299 4.65842 29.5439V31.1469Z" fill="white"/>
<mask id="mask1" style="mask-type:alpha" maskUnits="userSpaceOnUse" x="0" y="0" width="84" height="33">
<path fill-rule="evenodd" clip-rule="evenodd" d="M0 32.3077H83.121V0.999702H0V32.3077Z" fill="white"/>
</mask>
<g mask="url(#mask1)">
<path fill-rule="evenodd" clip-rule="evenodd" d="M5.27811 31.1467H5.65011V27.4967H5.27811V31.1467Z" fill="white"/>
<path fill-rule="evenodd" clip-rule="evenodd" d="M7.61088 29.8999L7.05188 29.9819C6.87988 30.0069 6.74988 30.0519 6.66188 30.1179C6.57488 30.1829 6.53088 30.2979 6.53088 30.4629C6.53088 30.5839 6.57088 30.6819 6.65288 30.7579C6.73288 30.8349 6.83988 30.8729 6.97488 30.8729C7.15888 30.8729 7.31088 30.8039 7.43088 30.6669C7.55088 30.5299 7.61088 30.3559 7.61088 30.1459V29.8999ZM7.98288 31.1469H7.61088V30.7619H7.60188C7.44088 31.0569 7.20288 31.2049 6.88888 31.2049C6.65788 31.2049 6.47688 31.1399 6.34688 31.0099C6.21588 30.8789 6.15088 30.7079 6.15088 30.4919C6.15088 30.0319 6.40588 29.7629 6.91588 29.6879L7.61088 29.5849C7.61088 29.1659 7.45188 28.9559 7.13288 28.9559C6.85388 28.9559 6.60188 29.0569 6.37688 29.2589V28.8549C6.60488 28.7009 6.86788 28.6239 7.16488 28.6239C7.70988 28.6239 7.98288 28.9299 7.98288 29.5439V31.1469Z" fill="white"/>
<path fill-rule="evenodd" clip-rule="evenodd" d="M8.97478 29.7964V30.1414C8.97478 30.3444 9.03678 30.5174 9.16178 30.6594C9.28678 30.8014 9.44378 30.8724 9.63578 30.8724C9.86078 30.8724 10.0368 30.7804 10.1648 30.5984C10.2918 30.4154 10.3558 30.1604 10.3558 29.8344C10.3558 29.5604 10.2958 29.3454 10.1768 29.1904C10.0578 29.0334 9.89578 28.9554 9.69278 28.9554C9.47678 28.9554 9.30278 29.0354 9.17178 29.1954C9.03978 29.3554 8.97478 29.5554 8.97478 29.7964ZM8.98378 30.7904H8.97478V31.1474H8.60278V27.4964H8.97478V29.1144H8.98378C9.16678 28.7874 9.43378 28.6234 9.78578 28.6234C10.0828 28.6234 10.3158 28.7344 10.4838 28.9544C10.6518 29.1754 10.7368 29.4714 10.7368 29.8424C10.7368 30.2544 10.6418 30.5844 10.4538 30.8324C10.2648 31.0804 10.0068 31.2044 9.67878 31.2044C9.37278 31.2044 9.14078 31.0674 8.98378 30.7904Z" fill="white"/>
<path fill-rule="evenodd" clip-rule="evenodd" d="M12.734 29.6783C12.732 29.4503 12.681 29.2733 12.579 29.1463C12.477 29.0193 12.335 28.9553 12.154 28.9553C11.979 28.9553 11.83 29.0233 11.708 29.1563C11.586 29.2883 11.51 29.4633 11.482 29.6783H12.734ZM13.114 30.0133H11.477C11.483 30.2873 11.552 30.4993 11.686 30.6493C11.818 30.7983 12.001 30.8723 12.234 30.8723C12.495 30.8723 12.734 30.7813 12.953 30.5983V30.9693C12.75 31.1263 12.48 31.2043 12.145 31.2043C11.817 31.2043 11.56 31.0933 11.373 30.8683C11.186 30.6453 11.092 30.3303 11.092 29.9243C11.092 29.5403 11.194 29.2283 11.399 28.9863C11.604 28.7443 11.858 28.6233 12.161 28.6233C12.464 28.6233 12.699 28.7283 12.865 28.9373C13.031 29.1453 13.114 29.4353 13.114 29.8063V30.0133Z" fill="white"/>
<path fill-rule="evenodd" clip-rule="evenodd" d="M14.8057 29.0816C14.7417 29.0276 14.6477 29.0016 14.5257 29.0016C14.3667 29.0016 14.2347 29.0816 14.1277 29.2396C14.0217 29.3986 13.9687 29.6156 13.9687 29.8906V31.1466H13.5967V28.6816H13.9687V29.1896H13.9767C14.0297 29.0166 14.1107 28.8816 14.2197 28.7836C14.3277 28.6866 14.4497 28.6386 14.5837 28.6386C14.6807 28.6386 14.7547 28.6486 14.8057 28.6716V29.0816Z" fill="white"/>
<path fill-rule="evenodd" clip-rule="evenodd" d="M16.3396 29.0816C16.2746 29.0276 16.1806 29.0016 16.0586 29.0016C15.9006 29.0016 15.7676 29.0816 15.6616 29.2396C15.5546 29.3986 15.5016 29.6156 15.5016 29.8906V31.1466H15.1306V28.6816H15.5016V29.1896H15.5106C15.5636 29.0166 15.6446 28.8816 15.7536 28.7836C15.8616 28.6866 15.9836 28.6386 16.1176 28.6386C16.2146 28.6386 16.2886 28.6486 16.3396 28.6716V29.0816Z" fill="white"/>
<path fill-rule="evenodd" clip-rule="evenodd" d="M18.6946 28.6812L17.6286 31.5412C17.4386 32.0522 17.1706 32.3082 16.8266 32.3082C16.7306 32.3082 16.6496 32.2972 16.5846 32.2772V31.9222C16.6646 31.9522 16.7376 31.9652 16.8036 31.9652C16.9906 31.9652 17.1316 31.8472 17.2256 31.6092L17.4106 31.1422L16.5056 28.6812H16.9176L17.5446 30.5782C17.5516 30.6032 17.5676 30.6652 17.5916 30.7672H17.6056C17.6126 30.7282 17.6286 30.6672 17.6516 30.5832L18.3096 28.6812H18.6946Z" fill="white"/>
<path fill-rule="evenodd" clip-rule="evenodd" d="M18.9651 29.9297H20.2011V29.6187H18.9651V29.9297Z" fill="white"/>
<path fill-rule="evenodd" clip-rule="evenodd" d="M22.3976 30.0318V29.6688C22.3976 29.4698 22.3356 29.3018 22.2116 29.1628C22.0876 29.0248 21.9316 28.9558 21.7406 28.9558C21.5146 28.9558 21.3366 29.0448 21.2066 29.2208C21.0766 29.3978 21.0116 29.6408 21.0116 29.9528C21.0116 30.2368 21.0736 30.4618 21.1986 30.6258C21.3236 30.7908 21.4906 30.8728 21.7006 30.8728C21.9066 30.8728 22.0746 30.7938 22.2036 30.6348C22.3336 30.4748 22.3976 30.2748 22.3976 30.0318ZM22.7686 31.1468H22.3976V30.7278H22.3886C22.2166 31.0468 21.9506 31.2048 21.5916 31.2048C21.2996 31.2048 21.0666 31.0938 20.8926 30.8738C20.7186 30.6528 20.6316 30.3518 20.6316 29.9718C20.6316 29.5638 20.7286 29.2378 20.9216 28.9918C21.1146 28.7468 21.3716 28.6238 21.6936 28.6238C22.0116 28.6238 22.2436 28.7578 22.3886 29.0228H22.3976V27.4968H22.7686V31.1468Z" fill="white"/>
<path fill-rule="evenodd" clip-rule="evenodd" d="M24.925 29.6783C24.924 29.4503 24.872 29.2733 24.77 29.1463C24.668 29.0193 24.527 28.9553 24.345 28.9553C24.17 28.9553 24.022 29.0233 23.899 29.1563C23.777 29.2883 23.701 29.4633 23.673 29.6783H24.925ZM25.305 30.0133H23.668C23.675 30.2873 23.744 30.4993 23.877 30.6493C24.009 30.7983 24.192 30.8723 24.425 30.8723C24.686 30.8723 24.925 30.7813 25.145 30.5983V30.9693C24.941 31.1263 24.672 31.2043 24.336 31.2043C24.008 31.2043 23.751 31.0933 23.564 30.8683C23.377 30.6453 23.283 30.3303 23.283 29.9243C23.283 29.5403 23.385 29.2283 23.59 28.9863C23.795 28.7443 24.049 28.6233 24.352 28.6233C24.655 28.6233 24.89 28.7283 25.056 28.9373C25.222 29.1453 25.305 29.4353 25.305 29.8063V30.0133Z" fill="white"/>
<path fill-rule="evenodd" clip-rule="evenodd" d="M25.739 29.9297H26.975V29.6187H25.739V29.9297Z" fill="white"/>
<path fill-rule="evenodd" clip-rule="evenodd" d="M30.027 27.6939L28.825 31.1469H28.406L27.229 27.6939H27.652L28.551 30.4319C28.58 30.5199 28.602 30.6229 28.616 30.7379H28.626C28.638 30.6409 28.663 30.5379 28.7 30.4269L29.617 27.6939H30.027Z" fill="white"/>
<path fill-rule="evenodd" clip-rule="evenodd" d="M31.3204 29.8999L30.7614 29.9819C30.5894 30.0069 30.4594 30.0519 30.3714 30.1179C30.2844 30.1829 30.2404 30.2979 30.2404 30.4629C30.2404 30.5839 30.2804 30.6819 30.3614 30.7579C30.4424 30.8349 30.5494 30.8729 30.6844 30.8729C30.8684 30.8729 31.0204 30.8039 31.1404 30.6669C31.2604 30.5299 31.3204 30.3559 31.3204 30.1459V29.8999ZM31.6924 31.1469H31.3204V30.7619H31.3114C31.1504 31.0569 30.9124 31.2049 30.5984 31.2049C30.3674 31.2049 30.1864 31.1399 30.0554 31.0099C29.9254 30.8789 29.8604 30.7079 29.8604 30.4919C29.8604 30.0319 30.1154 29.7629 30.6254 29.6879L31.3204 29.5849C31.3204 29.1659 31.1614 28.9559 30.8424 28.9559C30.5634 28.9559 30.3114 29.0569 30.0864 29.2589V28.8549C30.3144 28.7009 30.5774 28.6239 30.8744 28.6239C31.4194 28.6239 31.6924 28.9299 31.6924 29.5439V31.1469Z" fill="white"/>
<path fill-rule="evenodd" clip-rule="evenodd" d="M32.313 31.1467H32.684V27.4967H32.313V31.1467Z" fill="white"/>
<path fill-rule="evenodd" clip-rule="evenodd" d="M33.357 31.1467H33.728V27.4967H33.357V31.1467Z" fill="white"/>
<path fill-rule="evenodd" clip-rule="evenodd" d="M35.8844 29.6783C35.8834 29.4503 35.8314 29.2733 35.7294 29.1463C35.6274 29.0193 35.4864 28.9553 35.3044 28.9553C35.1294 28.9553 34.9814 29.0233 34.8584 29.1563C34.7364 29.2883 34.6604 29.4633 34.6324 29.6783H35.8844ZM36.2644 30.0133H34.6274C34.6344 30.2873 34.7034 30.4993 34.8364 30.6493C34.9684 30.7983 35.1514 30.8723 35.3844 30.8723C35.6454 30.8723 35.8844 30.7813 36.1044 30.5983V30.9693C35.9004 31.1263 35.6314 31.2043 35.2954 31.2043C34.9674 31.2043 34.7104 31.0933 34.5234 30.8683C34.3364 30.6453 34.2424 30.3303 34.2424 29.9243C34.2424 29.5403 34.3444 29.2283 34.5494 28.9863C34.7544 28.7443 35.0084 28.6233 35.3114 28.6233C35.6144 28.6233 35.8494 28.7283 36.0154 28.9373C36.1814 29.1453 36.2644 29.4353 36.2644 29.8063V30.0133Z" fill="white"/>
<path fill-rule="evenodd" clip-rule="evenodd" d="M38.5928 28.6812L37.5268 31.5412C37.3358 32.0522 37.0688 32.3082 36.7248 32.3082C36.6278 32.3082 36.5478 32.2972 36.4828 32.2772V31.9222C36.5628 31.9522 36.6358 31.9652 36.7018 31.9652C36.8888 31.9652 37.0298 31.8472 37.1228 31.6092L37.3088 31.1422L36.4038 28.6812H36.8148L37.4428 30.5782C37.4498 30.6032 37.4658 30.6652 37.4898 30.7672H37.5038C37.5108 30.7282 37.5268 30.6672 37.5488 30.5832L38.2078 28.6812H38.5928Z" fill="white"/>
<path fill-rule="evenodd" clip-rule="evenodd" d="M40.067 27.8433C39.995 27.8003 39.913 27.7793 39.82 27.7793C39.561 27.7793 39.431 27.9523 39.431 28.3013V28.6813H39.974V29.0183H39.431V31.1473H39.062V29.0183H38.666V28.6813H39.062V28.2813C39.062 28.0233 39.132 27.8193 39.273 27.6683C39.413 27.5193 39.588 27.4443 39.798 27.4443C39.911 27.4443 40.001 27.4583 40.067 27.4873V27.8433Z" fill="white"/>
<path fill-rule="evenodd" clip-rule="evenodd" d="M40.2939 31.1467H40.6649V28.6807H40.2939V31.1467ZM40.4839 28.0557C40.4179 28.0557 40.3609 28.0317 40.3149 27.9827C40.2679 27.9347 40.2439 27.8737 40.2439 27.8007C40.2439 27.7257 40.2679 27.6647 40.3149 27.6157C40.3609 27.5667 40.4179 27.5427 40.4839 27.5427C40.5519 27.5427 40.6099 27.5667 40.6569 27.6157C40.7049 27.6647 40.7289 27.7257 40.7289 27.8007C40.7289 27.8707 40.7049 27.9307 40.6569 27.9807C40.6099 28.0307 40.5519 28.0557 40.4839 28.0557Z" fill="white"/>
<path fill-rule="evenodd" clip-rule="evenodd" d="M42.8214 29.6783C42.8204 29.4503 42.7684 29.2733 42.6664 29.1463C42.5644 29.0193 42.4234 28.9553 42.2414 28.9553C42.0664 28.9553 41.9184 29.0233 41.7954 29.1563C41.6734 29.2883 41.5974 29.4633 41.5694 29.6783H42.8214ZM43.2014 30.0133H41.5644C41.5714 30.2873 41.6404 30.4993 41.7734 30.6493C41.9054 30.7983 42.0884 30.8723 42.3214 30.8723C42.5824 30.8723 42.8214 30.7813 43.0414 30.5983V30.9693C42.8374 31.1263 42.5684 31.2043 42.2324 31.2043C41.9054 31.2043 41.6474 31.0933 41.4604 30.8683C41.2734 30.6453 41.1794 30.3303 41.1794 29.9243C41.1794 29.5403 41.2814 29.2283 41.4864 28.9863C41.6914 28.7443 41.9454 28.6233 42.2484 28.6233C42.5514 28.6233 42.7864 28.7283 42.9524 28.9373C43.1184 29.1453 43.2014 29.4353 43.2014 29.8063V30.0133Z" fill="white"/>
<path fill-rule="evenodd" clip-rule="evenodd" d="M43.6851 31.1467H44.0561V27.4967H43.6851V31.1467Z" fill="white"/>
<path fill-rule="evenodd" clip-rule="evenodd" d="M46.3366 30.0318V29.6688C46.3366 29.4698 46.2746 29.3018 46.1506 29.1628C46.0266 29.0248 45.8696 28.9558 45.6796 28.9558C45.4536 28.9558 45.2746 29.0448 45.1456 29.2208C45.0156 29.3978 44.9506 29.6408 44.9506 29.9528C44.9506 30.2368 45.0126 30.4618 45.1376 30.6258C45.2616 30.7908 45.4296 30.8728 45.6396 30.8728C45.8456 30.8728 46.0136 30.7938 46.1426 30.6348C46.2726 30.4748 46.3366 30.2748 46.3366 30.0318ZM46.7076 31.1468H46.3366V30.7278H46.3276C46.1556 31.0468 45.8896 31.2048 45.5306 31.2048C45.2386 31.2048 45.0056 31.0938 44.8316 30.8738C44.6576 30.6528 44.5706 30.3518 44.5706 29.9718C44.5706 29.5638 44.6676 29.2378 44.8596 28.9918C45.0536 28.7468 45.3106 28.6238 45.6326 28.6238C45.9506 28.6238 46.1826 28.7578 46.3276 29.0228H46.3366V27.4968H46.7076V31.1468Z" fill="white"/>
</g>
</svg>
