<svg width="750" height="669" viewBox="0 0 750 669" fill="none" xmlns="http://www.w3.org/2000/svg">
<g opacity="0.104422">
<path fill-rule="evenodd" clip-rule="evenodd" d="M413.002 170.087C412.85 159.509 420.858 150.884 431.709 150.081C443.081 149.105 452.93 157.075 453.932 168.134C453.932 168.789 454.085 169.432 453.932 170.087C453.932 180.491 445.911 188.931 435.225 189.919C424.044 190.895 414.017 182.925 413.002 171.705V170.087ZM436.13 200.885C452.535 199.275 465 185.685 465 169.846C465 168.863 464.825 168.052 464.825 167.253C463.342 150.112 447.947 137.665 430.72 139.115C414.478 140.577 402 153.823 402 169.846C402 170.805 402.175 171.628 402.175 172.586C403.82 189.728 419.065 202.347 436.13 200.885V200.885Z" fill="white"/>
<path fill-rule="evenodd" clip-rule="evenodd" d="M570.709 146.595L577.439 132L581.309 146.595L585 161C578.448 159.932 571.718 159.23 565 158.851L570.709 146.595ZM559.832 170.592C568.602 170.964 577.044 171.309 586.291 172.963L589.947 185.836C594.557 186.374 598.025 186.911 603 188L592.736 146.293L585.135 115.461L571.089 114L556.867 146.293L541 182.197C546.452 182.39 548.601 182.197 554.066 182.57L559.832 170.592Z" fill="white"/>
<path fill-rule="evenodd" clip-rule="evenodd" d="M489.106 129.521L495.175 188L510.263 186.694L504.376 128.201L527 126.724L526.105 114C500.88 115.505 490.575 116.428 465 120.177L466.664 132.688L489.106 129.521Z" fill="white"/>
<path fill-rule="evenodd" clip-rule="evenodd" d="M701.942 226L715.699 198.589L753 180.672C749.183 177.726 744.875 175.669 740.894 173.089L715.044 185.151L710.383 156.378C705.092 153.785 701.942 152.41 696.463 150L703.769 192.04L690 219.268L701.942 226Z" fill="white"/>
<path fill-rule="evenodd" clip-rule="evenodd" d="M643.527 163.924L646.593 154C652.544 155.619 656.128 156.447 661.756 158.239C664.991 159.215 666 161.316 666 163.924C665.845 168.966 660.734 174.997 656.646 173.86L642 169.3L643.527 163.924ZM638.336 180.443L651.188 184.23L654.487 208.913C660.042 210.876 663.526 212.2 668.395 214L664.383 185.88C674.465 183.73 679.479 173.382 678.964 163.996C678.608 156.935 675.322 150.511 668.896 148.548C657.971 145.249 647.019 141.637 635.909 139L627.926 163.996L617 198.865C622.885 200.352 626.527 201.015 632.095 202.477L638.336 180.443Z" fill="white"/>
<path fill-rule="evenodd" clip-rule="evenodd" d="M345.437 177.002C351.276 172.932 355.421 182.153 354.966 188.636C354.826 190.671 354.043 192.341 352.817 193.239L340.52 201L334.518 188.636L333 185.493C337.905 181.984 340.684 179.949 345.437 177.002V177.002ZM345.062 239C350.072 235.858 352.81 233.75 357.489 230.793L345.872 210.031L356.851 203.575L376.401 219.285C381.411 216.819 384.641 215.268 389 212.988L366.54 195.196C367.829 192.942 368.492 190.489 368.799 188.049C369.929 173.744 354.1 158.02 343.109 164.503C333.727 169.899 324.05 175.136 315 181.235L318.561 188.049L345.062 239Z" fill="white"/>
<path fill-rule="evenodd" clip-rule="evenodd" d="M950.25 628.346C948.502 635.584 943.043 640.856 934.635 638.381L871.398 619.715C865.419 618.31 860.494 611.968 861.014 604.221C883.677 486.073 854.701 390.297 785.686 313.521C778.665 308.584 777.958 298.388 784.618 291.163L830.464 245.202C833.627 239.916 843.637 238.873 849.963 246.433C938.132 339.586 983.097 482.728 950.25 628.346V628.346ZM930.877 689.02C868.435 848.075 713.447 961 534.195 961C354.931 961 200.49 848.598 138.195 689.557C134.853 680.909 138.904 674.705 145.588 672.408L208.925 650.492C212.441 649.444 221.224 649.243 224.927 658.63C274.188 782.151 395.756 868.554 534.195 868.554C672.648 868.554 792.091 783.924 843.277 660.577C848.022 649.243 856.645 649.444 860.161 650.492L923.498 672.408C930.169 674.705 934.046 680.707 930.877 689.02V689.02ZM119.777 628.333C86.9243 482.547 131.719 339.761 219.682 246.686C226.887 239.466 234.787 239.466 239.524 244.744L285.373 290.759C292.045 297.992 291.338 308.2 284.306 313.143C215.292 390.008 186.336 485.896 208.98 604.181C209.5 611.937 204.577 618.286 198.625 619.693L135.402 638.38C126.956 640.858 121.525 635.58 119.777 628.333V628.333ZM758.416 355.126L610.112 426.933C599.415 432.202 589.942 427.12 589.063 414.834L577.14 250.342C575.914 233.494 582.935 234.014 590.995 235.935C661.989 252.97 713.72 283.171 763.851 335.836C774.376 347.082 766.835 351.097 758.416 355.126V355.126ZM666.573 544.536C656.643 537.844 656.323 527.013 666.533 520.052L803.065 426.792C817.065 417.224 820.121 423.634 822.497 431.643C843.29 502.233 843.036 562.623 822.523 632.958C818.066 647.793 810.779 643.238 803.065 637.943L666.573 544.536ZM579.256 817.74L591.17 653.178C592.049 641.408 601.167 635.616 612.189 641.061L760.4 712.885C775.629 720.279 771.609 726.057 765.818 732.196C715.554 785.257 663.851 815.097 593.1 832.139C578.205 835.823 578.564 827.055 579.256 817.74V817.74ZM431 533C431 475.665 477.649 429 535.007 429C592.338 429 639 475.665 639 533C639 590.348 592.338 637 535.007 637C477.649 637 431 590.348 431 533V533ZM312.541 714.94L460.778 642.964C471.47 637.868 480.924 642.964 481.803 655.075L493.893 819.73C494.945 836.577 488.101 836.057 479.872 833.949C408.903 817.089 357.227 786.917 307.095 734.068C296.59 723.023 304.299 718.968 312.541 714.94V714.94ZM304.149 335.832C329.061 309.671 354.347 289.073 382.204 272.865C410.407 256.416 441.261 244.516 477.005 235.938C485.065 234.017 492.086 233.483 490.86 250.332L478.95 414.835C478.511 420.825 476.033 425.094 472.369 427.309C468.519 429.603 463.376 429.643 457.901 426.935L309.584 355.163C301.165 351.121 293.624 347.078 304.149 335.832V335.832ZM403.435 523.462C413.338 530.154 413.685 540.998 403.489 547.945L266.933 641.204C252.947 650.772 249.89 644.375 247.515 636.366C226.708 565.777 226.962 505.388 247.475 435.041C251.932 420.205 259.206 424.761 266.933 430.069L403.435 523.462ZM269.385 200.664C342.084 142.645 434.453 107 534.2 107C633.921 107 725.423 142.645 799.176 200.503C808.664 208.077 808.664 215.852 803.74 221.482L759.677 270.358C753.339 277.235 746.853 276.015 737.899 269.125C681.694 225.209 610.396 199.605 534.2 199.605C457.978 199.605 386.694 225.37 331.022 269.125C322.241 276.176 315.743 277.235 309.431 270.358L265.355 221.482C260.431 215.852 260.258 208.077 269.385 200.664V200.664ZM1067.08 551.772C1068.31 541.922 1068.31 527.309 1067.08 517.62C1042.1 502.658 1011.28 495.78 984.188 495.619C983.145 482.384 981.193 469.189 978.906 455.98C1004.96 449.102 1033.11 434.314 1053.36 413.371C1051.95 403.682 1048.25 389.416 1044.56 380.436C1016.58 372.514 985.084 373.732 958.846 380.798C954.459 368.62 949.163 356.482 943.707 344.331C966.937 330.774 990.354 309.282 1004.6 283.922C1002.32 278.489 998.765 271.825 995.061 265.695C992.52 261.467 989.885 257.492 987.532 254.334C958.324 253.798 928.234 263.313 904.629 276.522C897.073 265.776 888.983 255.217 880.357 244.645C899.548 225.454 916.438 198.69 923.66 170.506C917.495 162.584 907.117 152.212 899.548 146.204C871.196 153.417 844.609 170.332 825.445 189.349C815.415 180.717 804.676 172.273 793.603 164.35C807.324 140.931 816.833 110.633 816.298 81.5798C808.381 75.4105 795.876 68.184 786.729 64.4904C761.386 78.5821 740.095 101.814 726.722 125.073C714.579 119.265 701.54 113.791 688.353 109.054C695.575 83.1455 696.979 51.4559 688.875 23.4599C679.728 19.5789 665.645 15.872 655.963 14.4802C635.033 34.9152 620.429 62.9113 613.382 88.7929C600.008 86.3306 586.274 84.5641 572.9 83.6942C573.074 56.916 566.213 25.9222 551.262 0.923824C546.381 0.308232 540.362 0.0138184 534.358 0.000435972C528.193 -0.0129465 522.027 0.281467 517.119 0.923824C502.154 25.9222 495.294 56.742 495.294 83.6942C481.559 84.5641 468.012 86.5045 454.638 88.7929C447.604 62.7239 432.813 34.5539 411.87 14.3063C402.188 15.7114 387.931 19.405 378.958 23.1119C371.054 51.1214 372.271 82.6236 379.306 108.867C366.467 113.791 353.455 119.425 340.95 125.247C327.39 102.015 305.925 78.5821 280.596 64.3165C275.888 66.3104 270.298 69.1877 264.909 72.3593C259.747 75.3436 254.798 78.5554 251.014 81.4058C250.492 110.633 259.987 140.744 273.548 164.35C263.505 171.911 253.314 179.673 243.632 187.943C224.454 168.753 197.694 151.838 169.542 144.611C161.612 150.794 151.234 161.165 145.243 168.753C152.464 197.097 169.355 223.688 188.359 242.892C179.934 253.451 171.294 264.545 163.364 275.826C140.134 262.27 109.87 252.755 80.6622 253.103C77.7735 256.93 74.6174 261.841 71.6752 266.913C68.5057 272.387 65.5903 278.034 63.5842 282.691C77.8404 308.238 101.084 329.543 124.487 343.273C119.205 355.077 114.096 367.228 109.522 379.567C83.2968 372.688 51.615 371.283 23.6376 379.379C19.7593 388.533 16.0682 402.611 14.664 412.3C35.072 433.27 63.0627 447.871 89.1142 454.763C87.1751 467.784 85.4098 481.18 84.0056 494.562C56.8975 494.562 25.9245 501.427 0.942831 516.389C-0.314277 526.252 -0.314277 540.892 0.942831 550.554C25.9245 565.529 56.7236 572.381 83.8317 572.381C85.0621 585.951 87.1751 599.681 89.4619 613.077C63.4104 620.29 35.2592 635.078 15.0117 656.048C16.4026 665.723 20.1204 680.002 23.8115 688.969C51.7888 696.904 83.2968 695.673 109.696 688.634C114.457 700.946 119.726 713.285 125.544 725.075C102.3 738.47 78.8969 759.963 64.6274 785.309C65.9915 788.481 67.7701 792.107 69.7628 795.761C73.4806 802.679 77.934 809.839 81.7187 814.884C110.926 815.433 141.03 805.904 164.42 792.535C172.177 803.616 180.616 814.362 189.242 824.747C170.064 843.777 153.173 870.542 145.952 898.712C152.103 906.661 162.495 917.032 170.064 923.028C198.389 915.814 224.975 898.886 244.153 880.057C254.357 888.688 265.27 896.959 276.53 904.894C263.331 928.3 253.835 958.598 254.183 987.852C262.114 993.821 274.778 1001.05 283.752 1004.91C309.269 990.649 330.559 967.404 344.294 943.81C355.728 948.923 367.871 953.847 380.188 958.437C373.328 984.306 371.923 1016.01 380.028 1044C389.175 1047.89 403.244 1051.59 412.926 1052.98C433.869 1032.58 448.473 1004.57 455.16 978.672C468.186 981.321 481.92 983.075 495.989 984.306C496.163 1011.08 503.037 1042.08 517.989 1067.09C522.709 1067.68 528.514 1067.97 534.358 1068C540.71 1068.01 547.089 1067.72 552.131 1067.09C567.083 1042.08 573.943 1011.26 574.13 984.132C587.143 983.075 600.356 980.96 613.034 978.672C619.881 1004.74 634.672 1032.91 655.602 1053.17C665.298 1051.75 679.54 1048.06 688.527 1044.37C696.444 1016.37 695.214 984.828 688.166 958.437C700.844 953.66 713.161 948.213 725.304 942.392C738.852 965.637 760.33 989.07 785.672 1003.32C794.833 999.455 807.484 992.054 815.241 986.246C815.763 957.006 806.267 926.895 792.881 903.315C803.446 895.901 813.824 887.618 823.867 879.173C843.218 898.203 869.979 915.092 898.13 922.318C906.047 916.149 916.438 905.778 922.416 898.203C915.208 869.846 898.304 843.255 879.3 824.064C887.752 813.84 896.017 802.92 903.934 791.652C927.364 805.035 957.615 814.536 986.662 814.014C989.27 810.669 992.079 806.44 994.713 802.037C998.297 796.055 1001.6 789.698 1003.74 784.426C989.645 759.066 966.415 737.761 943.359 723.843C948.815 712.053 953.75 699.889 958.324 687.737C984.188 694.79 1015.87 696.195 1043.85 688.099C1047.74 678.932 1051.42 664.84 1052.82 655.178C1032.41 634.194 1004.42 619.567 978.745 612.729C981.032 600.029 982.784 586.834 984.001 573.786C1011.12 573.599 1042.1 566.747 1067.08 551.772V551.772Z" fill="white"/>
<path fill-rule="evenodd" clip-rule="evenodd" d="M480.173 560.414C476.235 552.443 474 543.47 474 533.981C474 523.186 476.927 513.051 481.969 504.288C487.371 494.905 495.233 487.093 504.706 481.761C508.99 479.333 513.593 477.433 518.462 476.087L519.526 460H534.986H546.134L546.959 475.255C562.791 478.541 576.321 487.977 584.955 500.923C591.288 510.398 595 521.761 595 533.981C595 545.093 591.953 555.518 586.632 564.439C576.201 582.004 557.004 593.815 534.986 594H534.507C510.653 594 490.031 580.315 480.173 560.414M628 534C628 482.164 585.825 440 534.007 440C482.174 440 440 482.164 440 534C440 585.836 482.174 628 534.007 628C585.825 628 628 585.836 628 534" fill="white"/>
</g>
</svg>
