<svg width="600" height="750" viewBox="0 0 600 750" fill="none" xmlns="http://www.w3.org/2000/svg">
<path fill-rule="evenodd" clip-rule="evenodd" d="M232.173 542L177 577.618C178.989 581.891 181.332 586.911 183.662 591L239 555.367C235.998 549.981 234.491 547.006 232.173 542" fill="white"/>
<path fill-rule="evenodd" clip-rule="evenodd" d="M318.67 663.069L326 654.114C309.471 641.334 296.35 631.339 281.133 618L272.505 626.089C278.523 631.153 283.586 636.084 289.405 641.334L250 682.538L261.809 692L299.916 649.929C306.105 654.474 312.309 658.511 318.67 663.069" fill="white"/>
<path fill-rule="evenodd" clip-rule="evenodd" d="M637.964 705C616.671 709.524 599.917 713.154 579 716.207L580.72 727.977C588.7 726.712 595.927 725.805 604.095 724.732L614.763 781L630.361 777.934L617.987 722.175C625.778 720.36 633.208 718.379 641 716.386L637.964 705Z" fill="white"/>
<path fill-rule="evenodd" clip-rule="evenodd" d="M536 759L540.597 746.494L545.207 734L550.677 746.494L556 758.363L536 759ZM553.278 719.621L552.583 718L537.748 718.495L537.407 719.621L528.251 745.665L516 780.369C520.486 780.517 524.972 780.691 529.3 781L532.908 769.927L561.751 769.11L565.883 779.701C570.186 779.218 574.514 778.897 579 778.55L564.676 745.665L553.278 719.621Z" fill="white"/>
<path fill-rule="evenodd" clip-rule="evenodd" d="M485.927 752.935L466.635 708.001C462.016 706.929 459.46 705.71 455.011 705L440 771.637C444.437 772.709 448.874 773.392 453.48 774.089L461.861 733.549L481.321 779.046C485.576 779.568 490.532 781.149 495.657 780.989L503 712.234C499.069 711.873 494.619 712.422 490.532 711.699L485.927 752.935Z" fill="white"/>
<path fill-rule="evenodd" clip-rule="evenodd" d="M272.938 596.82L241.071 624.91L257.261 576.754C254.259 572.569 253.352 569.839 250.336 566L193 605.578C195.692 609.597 198.708 613.228 201.562 617.26L235.917 592.815L219.524 641.332C222.392 644.796 225.056 649.536 229.155 653L282 606.479C279.146 603.389 275.602 600.478 272.938 596.82" fill="white"/>
<path fill-rule="evenodd" clip-rule="evenodd" d="M428.438 720.673C427.139 724.605 423.392 728.236 419.335 726.596L405 720.999L405.173 720.673L406.484 717.055L410.059 707L425.68 712.935C427.634 713.762 428.611 715.214 428.945 717.055C429.094 718.219 428.945 719.509 428.438 720.673M430.553 702.814L402.409 692L391.998 716.415L390.526 720.011L378 749.479C382.068 751.619 386.136 752.926 390.044 754.22L399.8 730.004L412.166 735.243L412.821 762.893C417.544 764.723 422.107 766.017 426.324 767L424.37 737.856C433.31 736.724 439.011 728.361 439.827 720.011C440 718.854 440 717.572 440 716.415C439.505 710.504 436.587 705.104 430.553 702.814" fill="white"/>
<path fill-rule="evenodd" clip-rule="evenodd" d="M344.013 675.143C353.073 680.54 362.305 686.107 372.066 691.136L378 680.54C364.397 673.279 351.695 664.35 339.828 656L302 715.295C316.291 725.34 329.536 733.887 344.185 743L350.093 732.574L319.96 713.444L329.894 697.805L350.093 710.661L356.199 700.8C349.589 697.07 342.795 692.62 336 687.957L344.013 675.143Z" fill="white"/>
<path fill-rule="evenodd" clip-rule="evenodd" d="M413.002 8.08651C412.85 -2.4909 420.858 -11.1159 431.709 -11.9191C443.081 -12.8953 452.93 -4.92519 453.932 6.13414C453.932 6.78905 454.085 7.4316 453.932 8.08651C453.932 18.4909 445.911 26.9306 435.225 27.9192C424.044 28.8953 414.017 20.9252 413.002 9.70525V8.08651ZM436.13 38.8847C452.535 37.2751 465 23.6849 465 7.84618C465 6.86317 464.825 6.05218 464.825 5.25349C463.342 -11.8878 447.947 -24.3351 430.72 -22.8852C414.478 -21.423 402 -8.1769 402 7.84618C402 8.80461 402.175 9.62788 402.175 10.5863C403.82 27.7276 419.065 40.347 436.13 38.8847V38.8847Z" fill="white"/>
<path fill-rule="evenodd" clip-rule="evenodd" d="M570.709 -15.4054L577.439 -30L581.309 -15.4054L585 -1C578.448 -2.06757 571.718 -2.77027 565 -3.14865L570.709 -15.4054ZM559.832 8.59229C568.602 8.96443 577.044 9.309 586.291 10.9629L589.947 23.8361C594.557 24.3736 598.025 24.9112 603 26L592.736 -15.7068L585.135 -46.539L571.089 -48L556.867 -15.7068L541 20.1974C546.452 20.3904 548.601 20.1974 554.066 20.5696L559.832 8.59229Z" fill="white"/>
<path fill-rule="evenodd" clip-rule="evenodd" d="M489.106 -32.4786L495.175 26L510.263 24.6935L504.376 -33.7993L527 -35.2761L526.105 -48C500.88 -46.4947 490.575 -45.5717 465 -41.8227L466.664 -29.3118L489.106 -32.4786Z" fill="white"/>
<path fill-rule="evenodd" clip-rule="evenodd" d="M345.437 15.0021C351.276 10.9323 355.421 20.1525 354.966 26.6362C354.826 28.6711 354.043 30.3411 352.817 31.2393L340.52 39L334.518 26.6362L333 23.4926C337.905 19.9841 340.684 17.9492 345.437 15.0021V15.0021ZM345.062 77C350.072 73.8578 352.81 71.7498 357.489 68.7933L345.872 48.0312L356.851 41.5746L376.401 57.2853C381.411 54.8193 384.641 53.2681 389 50.9878L366.54 33.1955C367.829 30.9416 368.492 28.4889 368.799 26.0494C369.929 11.744 354.1 -3.97998 343.109 2.5032C333.727 7.89921 324.05 13.1361 315 19.2348L318.561 26.0494L345.062 77Z" fill="white"/>
<path fill-rule="evenodd" clip-rule="evenodd" d="M950.25 466.346C948.502 473.584 943.043 478.856 934.635 476.381L871.398 457.715C865.419 456.31 860.494 449.968 861.014 442.221C883.677 324.073 854.701 228.297 785.686 151.521C778.665 146.584 777.958 136.388 784.618 129.163L830.464 83.2017C833.627 77.9165 843.637 76.8728 849.963 84.4326C938.132 177.586 983.097 320.728 950.25 466.346V466.346ZM930.877 527.02C868.435 686.075 713.447 799 534.195 799C354.931 799 200.49 686.598 138.195 527.557C134.853 518.909 138.904 512.705 145.588 510.408L208.925 488.492C212.441 487.444 221.224 487.243 224.927 496.63C274.188 620.151 395.756 706.554 534.195 706.554C672.648 706.554 792.091 621.924 843.277 498.577C848.022 487.243 856.645 487.444 860.161 488.492L923.498 510.408C930.169 512.705 934.046 518.707 930.877 527.02V527.02ZM119.777 466.333C86.9243 320.547 131.719 177.761 219.682 84.6865C226.887 77.4661 234.787 77.4661 239.524 82.7441L285.373 128.759C292.045 135.992 291.338 146.2 284.306 151.143C215.292 228.008 186.336 323.896 208.98 442.181C209.5 449.937 204.577 456.286 198.625 457.693L135.402 476.38C126.956 478.858 121.525 473.58 119.777 466.333V466.333ZM758.416 193.126L610.112 264.933C599.415 270.202 589.942 265.12 589.063 252.834L577.14 88.3422C575.914 71.4942 582.935 72.0144 590.995 73.9353C661.989 90.9701 713.72 121.171 763.851 173.836C774.376 185.082 766.835 189.097 758.416 193.126V193.126ZM666.573 382.536C656.643 375.844 656.323 365.013 666.533 358.052L803.065 264.792C817.065 255.224 820.121 261.634 822.497 269.643C843.29 340.233 843.036 400.623 822.523 470.958C818.066 485.793 810.779 481.238 803.065 475.943L666.573 382.536ZM579.256 655.74L591.17 491.178C592.049 479.408 601.167 473.616 612.189 479.061L760.4 550.885C775.629 558.279 771.609 564.057 765.818 570.196C715.554 623.257 663.851 653.097 593.1 670.139C578.205 673.823 578.564 665.055 579.256 655.74V655.74ZM431 371C431 313.665 477.649 267 535.007 267C592.338 267 639 313.665 639 371C639 428.348 592.338 475 535.007 475C477.649 475 431 428.348 431 371V371ZM312.541 552.94L460.778 480.964C471.47 475.868 480.924 480.964 481.803 493.075L493.893 657.73C494.945 674.577 488.101 674.057 479.872 671.949C408.903 655.089 357.227 624.917 307.095 572.068C296.59 561.023 304.299 556.968 312.541 552.94V552.94ZM304.149 173.832C329.061 147.671 354.347 127.073 382.204 110.865C410.407 94.4156 441.261 82.5158 477.005 73.9378C485.065 72.0167 492.086 71.4831 490.86 88.3323L478.95 252.835C478.511 258.825 476.033 263.094 472.369 265.309C468.519 267.603 463.376 267.643 457.901 264.935L309.584 193.163C301.165 189.121 293.624 185.078 304.149 173.832V173.832ZM403.435 361.462C413.338 368.154 413.685 378.998 403.489 385.945L266.933 479.204C252.947 488.772 249.89 482.375 247.515 474.366C226.708 403.777 226.962 343.388 247.475 273.041C251.932 258.205 259.206 262.761 266.933 268.069L403.435 361.462ZM269.385 38.6636C342.084 -19.355 434.453 -55 534.2 -55C633.921 -55 725.423 -19.355 799.176 38.5027C808.664 46.0768 808.664 53.8519 803.74 59.4822L759.677 108.358C753.339 115.235 746.853 114.015 737.899 107.125C681.694 63.2089 610.396 37.6046 534.2 37.6046C457.978 37.6046 386.694 63.3698 331.022 107.125C322.241 114.176 315.743 115.235 309.431 108.358L265.355 59.4822C260.431 53.8519 260.258 46.0768 269.385 38.6636V38.6636ZM1067.08 389.772C1068.31 379.922 1068.31 365.309 1067.08 355.62C1042.1 340.658 1011.28 333.78 984.188 333.619C983.145 320.384 981.193 307.189 978.906 293.98C1004.96 287.102 1033.11 272.314 1053.36 251.371C1051.95 241.682 1048.25 227.416 1044.56 218.436C1016.58 210.514 985.084 211.732 958.846 218.798C954.459 206.62 949.163 194.482 943.707 182.331C966.937 168.774 990.354 147.282 1004.6 121.922C1002.32 116.489 998.765 109.825 995.061 103.695C992.52 99.4666 989.885 95.492 987.532 92.3337C958.324 91.7984 928.234 101.313 904.629 114.522C897.073 103.776 888.983 93.217 880.357 82.6449C899.548 63.4544 916.438 36.6895 923.66 8.50612C917.495 0.583714 907.117 -9.78767 899.548 -15.7964C871.196 -8.58325 844.609 8.33215 825.445 27.3486C815.415 18.7169 804.676 10.2726 793.603 2.3502C807.324 -21.0691 816.833 -51.3669 816.298 -80.4202C808.381 -86.5895 795.876 -93.816 786.729 -97.5096C761.386 -83.4179 740.095 -60.186 726.722 -36.9273C714.579 -42.7352 701.54 -48.2087 688.353 -52.946C695.575 -78.8545 696.979 -110.544 688.875 -138.54C679.728 -142.421 665.645 -146.128 655.963 -147.52C635.033 -127.085 620.429 -99.0887 613.382 -73.2071C600.008 -75.6694 586.274 -77.4359 572.9 -78.3058C573.074 -105.084 566.213 -136.078 551.262 -161.076C546.381 -161.692 540.362 -161.986 534.358 -162C528.193 -162.013 522.027 -161.719 517.119 -161.076C502.154 -136.078 495.294 -105.258 495.294 -78.3058C481.559 -77.4359 468.012 -75.4955 454.638 -73.2071C447.604 -99.2761 432.813 -127.446 411.87 -147.694C402.188 -146.289 387.931 -142.595 378.958 -138.888C371.054 -110.879 372.271 -79.3764 379.306 -53.1334C366.467 -48.2087 353.455 -42.5747 340.95 -36.7533C327.39 -59.9852 305.925 -83.4179 280.596 -97.6835C275.888 -95.6896 270.298 -92.8123 264.909 -89.6407C259.747 -86.6564 254.798 -83.4446 251.014 -80.5942C250.492 -51.3669 259.987 -21.2564 273.548 2.3502C263.505 9.91128 253.314 17.6731 243.632 25.9435C224.454 6.75303 197.694 -10.1624 169.542 -17.3889C161.612 -11.2062 151.234 -0.834823 145.243 6.75302C152.464 35.097 169.355 61.688 188.359 80.8918C179.934 91.4505 171.294 102.545 163.364 113.826C140.134 100.27 109.87 90.7546 80.6622 91.1026C77.7735 94.9299 74.6174 99.8413 71.6752 104.913C68.5057 110.387 65.5903 116.034 63.5842 120.691C77.8404 146.238 101.084 167.543 124.487 181.273C119.205 193.077 114.096 205.228 109.522 217.567C83.2968 210.688 51.615 209.283 23.6376 217.379C19.7593 226.533 16.0682 240.611 14.664 250.3C35.072 271.27 63.0627 285.871 89.1142 292.763C87.1751 305.784 85.4098 319.18 84.0056 332.562C56.8975 332.562 25.9245 339.427 0.942831 354.389C-0.314277 364.252 -0.314277 378.892 0.942831 388.554C25.9245 403.529 56.7236 410.381 83.8317 410.381C85.0621 423.951 87.1751 437.681 89.4619 451.077C63.4104 458.29 35.2592 473.078 15.0117 494.048C16.4026 503.723 20.1204 518.002 23.8115 526.969C51.7888 534.904 83.2968 533.673 109.696 526.634C114.457 538.946 119.726 551.285 125.544 563.075C102.3 576.47 78.8969 597.963 64.6274 623.309C65.9915 626.481 67.7701 630.107 69.7628 633.761C73.4806 640.679 77.934 647.839 81.7187 652.884C110.926 653.433 141.03 643.904 164.42 630.535C172.177 641.616 180.616 652.362 189.242 662.747C170.064 681.777 153.173 708.542 145.952 736.712C152.103 744.661 162.495 755.032 170.064 761.028C198.389 753.814 224.975 736.886 244.153 718.057C254.357 726.688 265.27 734.959 276.53 742.894C263.331 766.3 253.835 796.598 254.183 825.852C262.114 831.821 274.778 839.047 283.752 842.915C309.269 828.649 330.559 805.404 344.294 781.81C355.728 786.923 367.871 791.847 380.188 796.437C373.328 822.306 371.923 854.009 380.028 882.005C389.175 885.886 403.244 889.593 412.926 890.984C433.869 870.576 448.473 842.567 455.16 816.672C468.186 819.321 481.92 821.075 495.989 822.306C496.163 849.084 503.037 880.078 517.989 905.09C522.709 905.678 528.514 905.973 534.358 906C540.71 906.013 547.089 905.719 552.131 905.09C567.083 880.078 573.943 849.258 574.13 822.132C587.143 821.075 600.356 818.96 613.034 816.672C619.881 842.741 634.672 870.911 655.602 891.172C665.298 889.753 679.54 886.06 688.527 882.366C696.444 854.37 695.214 822.828 688.166 796.437C700.844 791.66 713.161 786.213 725.304 780.392C738.852 803.637 760.33 827.07 785.672 841.322C794.833 837.455 807.484 830.054 815.241 824.246C815.763 795.006 806.267 764.895 792.881 741.315C803.446 733.901 813.824 725.618 823.867 717.173C843.218 736.203 869.979 753.092 898.13 760.318C906.047 754.149 916.438 743.778 922.416 736.203C915.208 707.846 898.304 681.255 879.3 662.064C887.752 651.84 896.017 640.92 903.934 629.652C927.364 643.035 957.615 652.536 986.662 652.014C989.27 648.669 992.079 644.44 994.713 640.037C998.297 634.055 1001.6 627.698 1003.74 622.426C989.645 597.066 966.415 575.761 943.359 561.843C948.815 550.053 953.75 537.889 958.324 525.737C984.188 532.79 1015.87 534.195 1043.85 526.099C1047.74 516.932 1051.42 502.84 1052.82 493.178C1032.41 472.194 1004.42 457.567 978.745 450.729C981.032 438.029 982.784 424.834 984.001 411.786C1011.12 411.599 1042.1 404.747 1067.08 389.772V389.772Z" fill="white"/>
<path fill-rule="evenodd" clip-rule="evenodd" d="M480.173 398.414C476.235 390.443 474 381.47 474 371.981C474 361.186 476.927 351.051 481.969 342.288C487.371 332.905 495.233 325.093 504.706 319.761C508.99 317.333 513.593 315.433 518.462 314.087L519.526 298H534.986H546.134L546.959 313.255C562.791 316.541 576.321 325.977 584.955 338.923C591.288 348.398 595 359.761 595 371.981C595 383.093 591.953 393.518 586.632 402.439C576.201 420.004 557.004 431.815 534.986 432H534.507C510.653 432 490.031 418.315 480.173 398.414M628 372C628 320.164 585.825 278 534.007 278C482.174 278 440 320.164 440 372C440 423.836 482.174 466 534.007 466C585.825 466 628 423.836 628 372" fill="white"/>
</svg>
