<svg width="74" height="74" viewBox="0 0 74 74" fill="none" xmlns="http://www.w3.org/2000/svg">
<g id="facebook">
<path id="Fill 40" d="M72 37.0004C72 56.3306 56.3297 72 36.9996 72C17.6694 72 2 56.3306 2 37.0004C2 17.6703 17.6694 2 36.9996 2C56.3297 2 72 17.6703 72 37.0004" stroke="#696A69"/>
<path id="Fill 44" fill-rule="evenodd" clip-rule="evenodd" d="M31.966 37.1496V55.5214C31.966 55.7854 32.1849 56 32.4541 56H39.4108C39.68 56 39.8981 55.7854 39.8981 55.5214V36.8504H44.9416C45.1947 36.8504 45.406 36.6597 45.4273 36.4122L45.9123 30.7866C45.9367 30.5076 45.7125 30.2675 45.4266 30.2675H39.8981V26.2768C39.8981 25.3412 40.6713 24.5829 41.6252 24.5829H45.512C45.7819 24.5829 46 24.3682 46 24.1042V18.4786C46 18.2146 45.7819 18 45.512 18H38.9449C35.091 18 31.966 21.0641 31.966 24.8439V30.2675H28.488C28.2189 30.2675 28 30.4822 28 30.7462V36.3718C28 36.6365 28.2189 36.8504 28.488 36.8504H31.966V37.1496Z" fill="white"/>
</g>
</svg>
