<svg width="74" height="74" viewBox="0 0 74 74" fill="none" xmlns="http://www.w3.org/2000/svg">
<g id="linkedin">
<circle id="Oval" cx="37" cy="37" r="35" stroke="#696A69"/>
<path id="Shape" fill-rule="evenodd" clip-rule="evenodd" d="M24.1247 22C21.6313 22 20 23.612 20 25.73C20 27.803 21.584 29.4617 24.029 29.4617H24.0763C26.6187 29.4617 28.1994 27.803 28.1994 25.73C28.151 23.612 26.6187 22 24.1247 22ZM54 41.6176V54H46.7111V42.4474C46.7111 39.5467 45.6587 37.5658 43.0196 37.5658C41.0057 37.5658 39.8092 38.8994 39.2809 40.1908C39.089 40.6523 39.0395 41.2932 39.0395 41.9404V53.9995H31.7501C31.7501 53.9995 31.8479 34.4333 31.7501 32.4079H39.0401V35.4676C39.0332 35.4789 39.025 35.4901 39.0169 35.5012C39.0077 35.5137 38.9986 35.5261 38.9917 35.5383H39.0401V35.4676C40.0087 33.9996 41.7362 31.9009 45.6093 31.9009C50.4047 31.9009 54 34.9868 54 41.6176ZM27.72 54H20.4332V32.4079H27.72V54Z" fill="white"/>
</g>
</svg>
